<?xml version="1.0" encoding="UTF-8" standalone="no"?>
<svg
   xmlns:dc="http://purl.org/dc/elements/1.1/"
   xmlns:cc="http://web.resource.org/cc/"
   xmlns:rdf="http://www.w3.org/1999/02/22-rdf-syntax-ns#"
   xmlns:svg="http://www.w3.org/2000/svg"
   xmlns="http://www.w3.org/2000/svg"
   xmlns:sodipodi="http://sodipodi.sourceforge.net/DTD/sodipodi-0.dtd"
   xmlns:inkscape="http://www.inkscape.org/namespaces/inkscape"
   width="928.41797"
   height="587.63824"
   id="svg2258"
   sodipodi:version="0.32"
   inkscape:version="0.45.1"
   sodipodi:docname="Four Corners.svg"
   sodipodi:docbase="C:\Users\Carl\Desktop\Wikimedia SVGs"
   inkscape:output_extension="org.inkscape.output.svg.inkscape"
   version="1.0">
  <metadata
     id="metadata2318">
    <rdf:RDF>
      <cc:Work
         rdf:about="">
        <dc:format>image/svg+xml</dc:format>
        <dc:type
           rdf:resource="http://purl.org/dc/dcmitype/StillImage" />
      </cc:Work>
    </rdf:RDF>
  </metadata>
  <defs
     id="defs2316" />
  <sodipodi:namedview
     inkscape:window-height="974"
     inkscape:window-width="1280"
     inkscape:pageshadow="2"
     inkscape:pageopacity="0.0"
     guidetolerance="10.0"
     gridtolerance="10.0"
     objecttolerance="10.0"
     borderopacity="1.0"
     bordercolor="#666666"
     pagecolor="#ffffff"
     id="base"
     inkscape:zoom="1.1715686"
     inkscape:cx="510"
     inkscape:cy="296.5"
     inkscape:window-x="-8"
     inkscape:window-y="-8"
     inkscape:current-layer="svg2258"
     width="1020px"
     height="593px" />
  <g
     id="g2260"
     style="fill:#d3d3d3"
     inkscape:label="States"
     transform="translate(1,-6.3617734)" />
  <path
     d="M 159.07671,447.31325 L 158.75339,532.67038 L 160.36999,533.64034 L 163.44156,533.802 L 164.8965,532.67038 L 167.48308,532.67038 L 167.64475,535.58028 L 174.59618,542.37005 L 175.08117,544.95663 L 178.47605,543.01669 L 179.1227,542.85503 L 179.44602,539.78347 L 180.90096,538.16686 L 182.0326,538.0052 L 183.97253,536.55024 L 187.04409,538.65184 L 187.69074,541.56175 L 189.63067,542.69337 L 190.7623,545.11829 L 194.64218,546.89656 L 198.03706,552.87803 L 200.78529,556.75789 L 203.04855,559.50614 L 204.50351,563.22434 L 209.515,565.00262 L 214.68817,567.10421 L 215.65813,571.46907 L 216.14311,574.54063 L 215.17315,577.93552 L 213.39487,580.19877 L 211.77826,579.39047 L 210.32331,576.3189 L 207.57507,574.86396 L 205.7968,573.73232 L 204.98849,574.54063 L 206.44344,577.28888 L 206.6051,581.00708 L 205.47347,581.49206 L 203.53354,579.55213 L 201.43195,578.25884 L 201.91693,579.87545 L 203.21021,581.65373 L 202.40191,582.46203 C 202.40191,582.46203 201.59361,582.13871 201.10863,581.49206 C 200.62363,580.84542 199.00703,578.09718 199.00703,578.09718 L 198.03706,575.83392 C 198.03706,575.83392 197.71374,577.12721 197.06709,576.80388 C 196.42044,576.48056 195.7738,575.34894 195.7738,575.34894 L 197.55207,573.409 L 196.09712,571.95405 L 196.09712,566.94255 L 195.28882,566.94255 L 194.48052,570.33743 L 193.34888,570.82243 L 192.37892,567.10421 L 191.73227,563.386 L 190.92396,562.90102 L 191.24729,568.55917 L 191.24729,569.69079 L 189.79233,568.39751 L 186.23579,562.41604 L 184.13419,561.93106 L 183.48755,558.21285 L 181.87094,555.30295 L 180.25432,554.17131 L 180.25432,551.90806 L 182.35592,550.61477 L 181.87094,550.29145 L 179.28436,550.93809 L 175.88947,548.51318 L 173.30289,545.60327 L 168.45306,543.01669 L 164.41152,540.43011 L 165.70482,537.19689 L 165.70482,535.58028 L 163.92654,537.19689 L 161.01664,538.32852 L 157.29843,537.19689 L 151.64028,534.77198 L 146.14381,534.77198 L 145.49717,535.25696 L 139.03072,531.37708 L 136.92912,531.05376 L 134.18088,525.23396 L 130.62433,525.55728 L 127.06778,527.01223 L 127.55277,531.53875 L 128.68439,528.62885 L 129.65437,528.95217 L 128.19941,533.31702 L 131.43263,530.56878 L 132.07928,532.18539 L 128.19941,536.55024 L 126.90612,536.22692 L 126.42114,534.28698 L 125.12785,533.47868 L 123.83456,534.61031 L 121.08632,532.83204 L 118.01475,534.93364 L 116.23649,537.03523 L 112.8416,539.13683 L 108.15342,538.97516 L 107.66844,536.87357 L 111.38664,536.22692 L 111.38664,534.93364 L 109.12338,534.28698 L 110.09336,531.86207 L 112.35661,527.9822 L 112.35661,526.20393 L 112.51827,525.39562 L 116.88313,523.13236 L 117.85309,524.42565 L 120.60134,524.42565 L 119.30805,521.83908 L 115.58983,521.51575 L 110.57834,524.26399 L 108.15342,527.65887 L 106.37515,530.24546 L 105.24352,532.50872 L 101.04033,533.96366 L 97.96876,536.55024 L 97.645439,538.16686 L 99.908696,539.13683 L 100.71701,541.23841 L 97.96876,544.47164 L 91.502321,548.67484 L 83.742574,552.87803 L 81.640977,554.00965 L 76.306159,555.14129 L 70.971333,557.40454 L 72.749608,558.69783 L 71.294654,560.15278 L 70.809672,561.28441 L 68.061434,560.31444 L 64.828214,560.4761 L 64.019902,562.73936 L 63.049939,562.73936 L 63.37326,560.31444 L 59.816709,561.60774 L 56.90681,562.5777 L 53.511924,561.28441 L 50.602023,563.22434 L 47.368799,563.22434 L 45.267202,564.51764 L 43.65059,565.32594 L 41.548995,565.00262 L 38.962415,563.87099 L 36.699158,564.51764 L 35.729191,565.4876 L 34.112578,564.35598 L 34.112578,562.41604 L 37.184142,561.12275 L 43.488929,561.7694 L 47.853782,560.15278 L 49.955378,558.05119 L 52.86528,557.40454 L 54.643553,556.59623 L 57.391794,556.75789 L 59.008406,558.05119 L 59.978369,557.72787 L 62.241626,554.97963 L 65.313196,554.00965 L 68.708076,553.36301 L 70.00137,553.03969 L 70.648012,553.52467 L 71.456324,553.52467 L 72.749608,549.80646 L 76.791141,548.35152 L 78.731077,544.63331 L 80.994336,540.10679 L 82.610951,538.65184 L 82.934272,536.06526 L 81.317657,537.35855 L 77.922764,538.0052 L 77.276122,535.58028 L 75.982838,535.25696 L 75.012865,536.22692 L 74.851205,539.13683 L 73.39625,538.97516 L 71.941306,533.15536 L 70.648012,534.44864 L 69.516388,533.96366 L 69.193068,532.02373 L 65.151535,532.18539 L 63.049939,533.31702 L 60.463361,532.9937 L 61.918305,531.53875 L 62.403286,528.95217 L 61.756645,527.01223 L 63.211599,526.04227 L 64.504883,525.88061 L 63.858241,524.10233 L 63.858241,519.73748 L 62.888278,518.76751 L 62.079966,520.22246 L 55.936843,520.22246 L 54.481892,518.92917 L 53.835247,515.04931 L 51.733651,511.49275 L 51.733651,510.52279 L 53.835247,509.71448 L 53.996908,507.61288 L 55.128536,506.48126 L 54.320231,505.99628 L 53.026941,506.48126 L 51.895313,503.73302 L 52.86528,498.72151 L 57.391794,495.4883 L 59.978369,493.87168 L 61.918305,490.15348 L 64.666554,488.86018 L 67.253132,489.99182 L 67.576453,492.41674 L 70.00137,492.0934 L 73.23459,489.66849 L 74.851205,490.31514 L 75.821167,490.96178 L 77.437782,490.96178 L 79.701041,489.66849 L 80.509354,485.30363 C 80.509354,485.30363 80.832675,482.39374 81.479317,481.90875 C 82.125959,481.42377 82.44928,480.93879 82.44928,480.93879 L 81.317657,478.99885 L 78.731077,479.80716 L 75.497847,480.61546 L 73.557911,480.13048 L 70.00137,478.3522 L 64.989875,478.19054 L 61.433324,474.47234 L 61.918305,470.59247 L 62.564957,468.16755 L 60.463361,466.38928 L 58.523423,462.67106 L 59.008406,461.86276 L 65.798177,461.37778 L 67.899773,461.37778 L 68.869736,462.34774 L 69.516388,462.34774 L 69.354728,460.73113 L 73.23459,460.08449 L 75.821167,460.40781 L 77.276122,461.53944 L 75.821167,463.64104 L 75.336186,465.09598 L 78.084435,466.7126 L 83.095932,468.49087 L 84.874208,467.52091 L 82.610951,463.15606 L 81.640977,459.92283 L 82.610951,459.11452 L 79.21606,457.17459 L 78.731077,456.04295 L 79.21606,454.42635 L 78.407756,450.54648 L 75.497847,445.8583 L 73.072929,441.65511 L 75.982838,439.71517 L 79.21606,439.71517 L 80.994336,440.36182 L 85.197528,440.20016 L 88.915733,436.64362 L 90.047366,433.57205 L 93.765578,431.14713 L 95.382182,432.1171 L 98.130421,431.47045 L 101.84863,429.36885 L 102.98027,429.20719 L 103.95023,430.01551 L 108.47674,429.85384 L 111.22498,426.78228 L 112.35661,426.78228 L 115.91316,429.20719 L 117.85309,431.30879 L 117.36811,432.44042 L 118.01475,433.57205 L 119.63137,431.95544 L 123.51124,432.27876 L 123.83456,435.99696 L 125.7745,437.45192 L 132.88759,438.09856 L 139.19238,442.30175 L 140.64732,441.33179 L 145.82049,443.91837 L 147.92208,443.27173 L 149.86202,442.46341 L 154.71185,444.40335 L 159.07671,447.31325 z M 43.973913,476.25061 L 46.075509,481.58543 L 45.913847,482.5554 L 43.003945,482.23207 L 41.225672,478.19054 L 39.447399,476.7356 L 37.02248,476.7356 L 36.86082,474.14901 L 38.639093,471.72409 L 39.770722,474.14901 L 41.225672,475.60396 L 43.973913,476.25061 z M 41.387333,509.71448 L 45.105542,510.52279 L 48.823749,511.49275 L 49.632056,512.46273 L 48.015444,516.18093 L 44.94388,516.01927 L 41.548995,512.46273 L 41.387333,509.71448 z M 20.694697,495.64996 L 21.826327,498.23653 L 22.957955,499.85315 L 21.826327,500.66145 L 19.72473,497.58989 L 19.72473,495.64996 L 20.694697,495.64996 z M 6.9534943,568.72083 L 10.34838,566.45757 L 13.743265,565.4876 L 16.329845,565.81092 L 16.814828,567.42753 L 18.754763,567.91252 L 20.694697,565.97259 L 20.371375,564.35598 L 23.119616,563.70933 L 26.029518,566.29591 L 24.897889,568.07418 L 20.533037,569.20581 L 17.784795,568.72083 L 14.066588,567.5892 L 9.7017347,569.04415 L 8.0851227,569.36747 L 6.9534943,568.72083 z M 55.936843,564.19432 L 57.553455,566.13425 L 59.655048,564.51764 L 58.2001,563.22434 L 55.936843,564.19432 z M 58.846745,567.26587 L 59.978369,565.00262 L 62.079966,565.32594 L 61.271663,567.26587 L 58.846745,567.26587 z M 82.44928,565.32594 L 83.904234,567.10421 L 84.874208,565.97259 L 84.065895,564.03265 L 82.44928,565.32594 z M 91.17899,552.87803 L 92.310623,558.69783 L 95.220522,559.50614 L 100.23202,556.59623 L 104.59687,554.00965 L 102.98027,551.58474 L 103.46525,549.15982 L 101.36365,550.45311 L 98.453752,549.6448 L 100.07036,548.51318 L 102.01029,549.32148 L 105.89016,547.5432 L 106.37515,546.08826 L 103.95023,545.27995 L 104.75853,543.34001 L 102.01029,545.27995 L 97.322118,548.8365 L 92.472284,551.7464 L 91.17899,552.87803 z M 133.53423,532.9937 L 135.95915,531.53875 L 134.98918,529.76047 L 133.21091,530.73044 L 133.53423,532.9937 z "
     id="AK"
     style="fill:#cccccc;fill-opacity:1" />
  <path
     d="M 756.39728,439.14499 L 758.66294,446.46359 L 762.39264,456.20585 L 767.72743,465.58215 L 771.44562,471.88691 L 776.29544,477.38337 L 780.33695,481.10156 L 781.95355,484.01145 L 780.82193,485.30473 L 780.01363,486.59801 L 782.92351,494.0344 L 785.8334,496.94428 L 788.41997,502.27908 L 791.9765,508.09886 L 796.50299,516.34354 L 797.79628,523.94158 L 798.28126,535.90446 L 798.9279,537.68272 L 798.60458,541.07759 L 796.17967,542.37088 L 796.50299,544.3108 L 795.85635,546.25073 L 796.17967,548.67563 L 796.66465,550.61556 L 793.91643,553.84877 L 790.84488,555.30371 L 786.96503,555.46537 L 785.51008,557.08198 L 783.08518,558.05194 L 781.79189,557.56696 L 780.66027,556.597 L 780.33695,553.68711 L 779.52864,550.29224 L 776.13377,545.1191 L 772.57724,542.85586 L 768.69739,542.53254 L 767.88909,543.82582 L 764.81754,539.46099 L 764.1709,535.90446 L 761.58433,531.86295 L 759.80607,530.73132 L 758.18946,532.83291 L 756.4112,532.50959 L 754.30961,527.49811 L 751.39972,523.61826 L 748.48983,518.28347 L 745.90327,515.21192 L 742.34674,511.49373 L 744.44832,509.06882 L 747.68153,503.57236 L 747.51987,501.95576 L 742.99338,500.9858 L 741.37677,501.63244 L 741.7001,502.27908 L 744.28666,503.24904 L 742.83172,507.77554 L 742.02342,508.26052 L 740.24515,504.21901 L 738.95187,499.36919 L 738.62855,496.62096 L 740.08349,491.93281 L 740.08349,482.39484 L 737.01194,478.67665 L 735.71866,475.6051 L 730.54552,474.31182 L 728.6056,473.66518 L 726.98899,471.07861 L 723.59412,469.462 L 722.4625,466.06713 L 719.71427,465.09717 L 717.28936,461.37898 L 713.08619,459.92404 L 710.1763,458.46909 L 707.58974,458.46909 L 703.54822,459.2774 L 703.38656,461.21732 L 704.19487,462.18728 L 703.70988,463.31891 L 700.63834,463.15725 L 696.92015,466.71378 L 693.36361,468.6537 L 689.48376,468.6537 L 686.25055,469.94699 L 685.92723,467.19876 L 684.31063,465.25883 L 681.40074,464.12721 L 679.78414,462.67226 L 671.70111,458.79241 L 664.10307,457.01415 L 659.73824,457.66079 L 653.7568,458.14577 L 647.77536,460.24736 L 644.29612,460.86032 L 644.0582,452.81057 L 641.47163,450.87065 L 639.69336,449.09238 L 640.01668,446.02082 L 650.2013,444.72754 L 675.7437,441.81765 L 682.53345,441.17101 L 687.96945,441.45128 L 690.55602,445.33114 L 692.01096,446.78608 L 700.10912,447.3013 L 710.92887,446.65466 L 732.44126,445.36137 L 737.88698,444.687 L 742.46423,444.71473 L 742.62589,447.62462 L 746.44989,448.43292 L 746.77321,443.62615 L 745.15661,439.09964 L 746.11145,438.36692 L 751.22414,438.82167 L 756.39728,439.14499 z M 768.94269,571.55007 L 771.36761,570.90343 L 772.66089,570.66094 L 774.11585,568.31685 L 776.45993,566.70024 L 777.75322,567.18523 L 779.45066,567.50855 L 779.85481,568.55934 L 776.37911,569.7718 L 772.17591,571.22675 L 769.83183,572.43921 L 768.94269,571.55007 z M 782.44139,566.53858 L 783.65385,567.58938 L 786.40209,565.48779 L 791.7369,561.2846 L 795.4551,557.40473 L 797.96085,550.77663 L 798.93082,549.07919 L 799.09248,545.68431 L 798.365,546.16929 L 797.39504,548.99836 L 795.94008,553.60569 L 792.70686,558.85969 L 788.34202,563.06287 L 784.94714,565.0028 L 782.44139,566.53858 z "
     id="FL"
     style="fill:#cccccc;fill-opacity:1" />
  <path
     d="M 762.23097,406.57608 L 760.45391,407.54558 L 757.86734,406.25229 L 757.2207,404.1507 L 755.92742,400.59417 L 753.66416,398.49257 L 751.07759,397.84593 L 749.46099,392.99612 L 746.71275,387.01467 L 742.50958,385.07473 L 740.40798,383.13481 L 739.1147,380.54824 L 737.01311,378.6083 L 734.74986,377.31502 L 732.48661,374.40513 L 729.41506,372.14189 L 724.88855,370.36361 L 724.40357,368.90867 L 721.97867,365.99878 L 721.49368,364.54382 L 718.0988,359.37069 L 714.70393,359.53235 L 710.66241,357.10743 L 709.36913,355.81415 L 709.04581,354.03588 L 709.85411,352.09596 L 712.11736,351.12598 L 711.79404,349.0244 L 717.93714,346.43783 L 726.99014,341.91133 L 734.26487,341.10302 L 750.75427,340.61804 L 753.01752,342.55797 L 754.63412,345.79119 L 758.99897,345.30621 L 771.6085,343.85125 L 774.51839,344.65956 L 787.12793,352.25762 L 797.23601,360.3793 L 791.81484,365.83764 L 789.22827,371.98074 L 788.74329,378.2855 L 787.12669,379.0938 L 785.99506,381.84203 L 783.57016,382.48867 L 781.46857,386.0452 L 778.72034,388.79343 L 776.4571,392.1883 L 774.84049,392.9966 L 771.28396,396.39147 L 768.37407,396.55313 L 769.34404,399.78634 L 764.33256,405.2828 L 762.23097,406.57608 z "
     id="SC"
     style="fill:#cccccc;fill-opacity:1" />
  <path
     d="M 690.61648,351.61097 L 685.76666,352.41928 L 677.3603,353.5509 L 668.79229,354.44003 L 668.79229,356.62245 L 668.95395,358.72405 L 669.60059,362.11892 L 672.99547,370.04029 L 675.42038,379.9016 L 676.87532,386.04471 L 678.49193,390.89452 L 679.94688,397.84593 L 682.04847,404.1507 L 684.63504,407.54558 L 685.12002,410.94045 L 687.05995,411.74875 L 687.22161,413.85035 L 685.44334,418.70016 L 684.95836,421.93338 L 684.7967,423.87331 L 686.41331,428.23815 L 686.73663,433.57295 L 685.92832,435.99786 L 686.57497,436.80617 L 688.02992,437.61447 L 688.67656,441.00934 L 691.26313,444.8892 L 692.71807,446.34414 L 700.63945,446.5058 L 711.4592,445.85916 L 732.97159,444.56588 L 738.41731,443.89151 L 742.99456,443.91924 L 743.15622,446.82913 L 745.74279,447.63743 L 746.06611,443.27259 L 744.4495,438.74609 L 745.58113,437.12949 L 751.40091,437.93779 L 756.37832,438.25557 L 755.6029,431.95678 L 757.86614,421.93383 L 759.32109,417.73065 L 758.8361,415.14409 L 762.17051,408.89979 L 761.66021,407.54811 L 759.7468,408.25269 L 757.16024,406.95939 L 756.51359,404.8578 L 755.22031,401.30127 L 752.95705,399.19968 L 750.37049,398.55304 L 748.75388,393.70322 L 745.82887,387.36822 L 741.6257,385.42829 L 739.5241,383.48836 L 738.23081,380.90179 L 736.12923,378.96186 L 733.86598,377.66857 L 731.60273,374.75868 L 728.53118,372.49544 L 724.00467,370.71716 L 723.51969,369.26222 L 721.09478,366.35233 L 720.6098,364.89738 L 717.21492,359.9894 L 713.82005,360.15107 L 709.69014,357.10743 L 708.39686,355.81415 L 708.07354,354.03588 L 708.88184,352.09596 L 711.23348,350.86082 L 710.09954,349.6386 L 710.17743,349.34772 L 704.35764,350.31768 L 697.40623,351.12598 L 690.61648,351.61097 z "
     id="GA"
     style="fill:#cccccc;fill-opacity:1" />
  <path
     d="M 626.59784,460.40902 L 624.98224,445.21252 L 622.234,426.45988 L 622.39566,412.39539 L 623.20396,381.35654 L 623.0423,364.70548 L 623.20739,358.28642 L 630.96369,357.91573 L 658.76933,355.32917 L 667.69187,354.66697 L 667.54407,356.84939 L 667.70573,358.95099 L 668.35238,362.34586 L 671.74726,370.26723 L 674.17216,380.12854 L 675.62711,386.27165 L 677.24371,391.12147 L 678.69867,398.07288 L 680.80025,404.37764 L 683.38682,407.77253 L 683.8718,411.16739 L 685.81174,411.9757 L 685.9734,414.07729 L 684.19512,418.92711 L 683.71014,422.16033 L 683.54848,424.10025 L 685.1651,428.4651 L 685.48842,433.79989 L 684.6801,436.22481 L 685.32676,437.03311 L 686.7817,437.84141 L 687.81695,440.37668 L 681.51218,440.37668 L 674.72243,441.02333 L 649.18003,443.93321 L 638.76847,445.33998 L 638.67209,449.09238 L 640.45036,450.87065 L 643.03693,452.81057 L 643.61779,460.74601 L 638.07573,463.31891 L 635.32751,462.99559 L 638.07573,461.05566 L 638.07573,460.0857 L 635.00419,454.10426 L 632.74094,453.45762 L 631.28599,457.82245 L 629.99271,460.57068 L 629.34607,460.40902 L 626.59784,460.40902 z "
     id="AL"
     style="fill:#cccccc;fill-opacity:1" />
  <path
     d="M 833.10653,292.11002 L 834.81653,296.80862 L 838.37306,303.27504 L 840.79796,305.69995 L 841.4446,307.9632 L 839.0197,308.12486 L 839.828,308.7715 L 839.50468,312.97467 L 836.91811,314.26795 L 836.27147,316.36954 L 834.97819,319.27943 L 831.25999,320.89603 L 828.83509,320.57271 L 827.38014,320.41105 L 825.76354,319.11777 L 826.08686,320.41105 L 826.08686,321.38102 L 828.02679,321.38102 L 828.83509,322.6743 L 826.89516,328.97906 L 831.09833,328.97906 L 831.74498,330.59566 L 834.00822,328.33242 L 835.30151,327.84743 L 833.36158,331.40396 L 830.29003,336.25378 L 828.99675,336.25378 L 827.86512,335.7688 L 825.1169,336.41544 L 819.94376,338.84035 L 813.47734,344.17514 L 810.08247,348.86329 L 808.14255,355.32971 L 807.65757,357.75462 L 802.96941,358.2396 L 797.51628,359.57626 L 787.56987,351.37373 L 774.96033,343.77568 L 772.05044,342.96737 L 759.44091,344.42232 L 755.16445,345.17247 L 753.54785,341.93925 L 750.57749,339.82255 L 734.0881,340.30753 L 726.81336,341.11583 L 717.76037,345.64234 L 711.61726,348.2289 L 710.00066,348.55222 L 704.18087,349.52219 L 697.22946,350.33049 L 690.43971,350.81548 L 690.9398,346.76115 L 692.71807,345.30621 L 695.46631,344.65956 L 696.11295,340.94136 L 700.31613,338.19314 L 704.19598,336.73818 L 708.39917,333.18165 L 712.764,331.08006 L 713.41064,328.0085 L 717.2905,324.12865 L 717.93714,323.96699 C 717.93714,323.96699 717.93714,325.09862 718.74545,325.09862 C 719.55375,325.09862 720.68538,325.42194 720.68538,325.42194 L 722.94863,321.8654 L 725.05022,321.21875 L 727.31346,321.54208 L 728.93008,317.98555 L 731.83997,315.39897 L 732.32495,313.29738 L 732.32495,309.33669 L 736.85145,310.06417 L 743.98754,308.77088 L 759.80727,306.83095 L 776.94331,304.24438 L 796.86504,300.24378 L 816.59836,296.07896 L 827.9628,293.28253 L 833.10653,292.11002 z M 837.00199,325.09784 L 839.58857,322.59209 L 842.74095,320.00551 L 844.27673,319.35887 L 844.43839,317.33811 L 843.79175,311.19499 L 842.3368,308.85091 L 841.69015,306.99181 L 842.41763,306.74931 L 845.16587,312.24579 L 845.57002,316.69146 L 845.40836,320.08635 L 842.01348,321.62212 L 839.18441,324.04704 L 838.05279,325.2595 L 837.00199,325.09784 z "
     id="NC"
     style="fill:#cccccc;fill-opacity:1" />
  <path
     d="M 698.05288,314.26734 L 646.15979,319.27883 L 630.40023,321.05709 L 625.77903,321.5698 L 621.91068,321.54208 L 621.91068,325.42194 L 613.50433,325.90692 L 606.55292,326.55356 L 595.45689,326.60647 L 595.19215,332.4419 L 593.05398,338.71744 L 592.05891,341.73345 L 590.71017,346.11451 L 590.38685,348.70108 L 586.34533,350.96432 L 587.80027,354.52086 L 586.83031,358.8857 L 585.86193,359.67535 L 593.11797,359.48104 L 617.20542,357.54112 L 622.54027,357.37945 L 630.62326,356.89446 L 658.42891,354.3079 L 668.59966,353.49959 L 677.01988,352.52963 L 685.42624,351.39801 L 690.27606,350.5897 L 690.14548,346.0803 L 691.92375,344.62536 L 694.67198,343.97872 L 695.31863,340.26052 L 699.52181,337.51229 L 703.40166,336.05733 L 707.60484,332.5008 L 711.96967,330.39922 L 712.84326,326.87376 L 717.17702,322.99391 L 717.82367,322.83225 C 717.82367,322.83225 717.82367,323.96387 718.63197,323.96387 C 719.44027,323.96387 720.5719,324.28719 720.5719,324.28719 L 722.83515,320.73065 L 724.93674,320.08401 L 727.19998,320.40733 L 728.8166,316.8508 L 730.93216,314.60464 L 731.53062,313.6378 L 731.70699,309.70568 L 730.22336,309.41752 L 727.79845,311.35746 L 719.87707,311.51912 L 707.88174,313.4198 L 698.05288,314.26734 z "
     id="TN"
     style="fill:#cccccc;fill-opacity:1" />
  <path
     d="M 757.56051,235.60554 L 758.67252,240.55007 L 759.75596,247.4564 L 763.31563,244.70817 L 765.57887,241.63661 L 768.11725,241.02106 L 769.5722,239.56612 L 771.35047,236.97955 L 772.53028,237.62619 L 775.44017,237.30287 L 778.02675,235.20128 L 780.03364,233.74802 L 781.87887,233.26303 L 783.18279,234.2795 L 785.41183,235.39402 L 787.35176,237.17229 L 788.72588,238.46557 L 788.58288,243.13663 L 782.92475,240.06508 L 778.39825,238.28681 L 778.23659,243.62162 L 777.75161,245.7232 L 776.13501,248.47144 L 775.48835,250.08805 L 772.4168,252.51295 L 771.93182,254.77621 L 768.53694,255.09953 L 768.21362,258.17108 L 767.082,263.66755 L 764.49543,263.66755 L 763.20215,262.85924 L 761.58553,260.111 L 759.80727,260.27266 L 759.48395,264.63751 L 757.38236,271.2656 L 752.37088,282.09687 L 753.17918,283.39015 L 753.01752,286.13838 L 750.91593,288.07831 L 749.46099,287.75499 L 746.22777,290.1799 L 743.6412,289.20994 L 741.86294,293.89809 C 741.86294,293.89809 738.14473,294.7064 737.49809,294.86806 C 736.85145,295.02972 735.07318,293.57477 735.07318,293.57477 L 732.64827,295.83802 L 730.0617,296.48467 L 727.1518,295.67636 L 725.85852,294.38308 L 723.6663,291.35972 L 720.52371,289.3716 L 717.93714,286.62336 L 715.02726,282.90517 L 714.38061,280.64192 L 711.79404,279.18697 L 710.98573,277.57037 L 710.74324,272.31639 L 712.92566,272.23556 L 714.8656,271.42726 L 715.02726,268.67903 L 716.64386,267.22408 L 716.80552,262.2126 L 717.77548,258.33274 L 719.06877,257.6861 L 720.36205,258.81772 L 720.84704,260.59599 L 722.62531,259.62602 L 723.11029,258.00942 L 721.97867,256.23115 L 721.97867,253.80624 L 722.94863,252.51295 L 725.21188,249.11808 L 726.50516,247.66314 L 728.60676,248.14812 L 730.87,246.5315 L 733.94155,243.13663 L 736.20481,239.25677 L 736.52813,233.59866 L 737.01311,228.58717 L 737.01311,223.89901 L 735.88149,220.82746 L 736.85145,219.3725 L 738.13493,218.07922 L 741.62618,237.90634 L 746.25719,237.15519 L 757.56051,235.60554 z "
     id="WV"
     style="fill:#cccccc;fill-opacity:1" />
  <path
     d="M 722.78301,291.4561 L 720.45844,294.13903 L 716.25525,297.69557 L 711.9557,303.59774 L 710.17743,305.37601 L 710.17743,307.47759 L 706.29757,309.57918 L 700.63945,312.97406 L 697.11989,313.3587 L 645.252,318.25756 L 629.49244,320.03582 L 624.87124,320.54853 L 621.00289,320.52081 L 620.77594,324.74109 L 612.59653,324.88565 L 605.64512,325.53229 L 595.21453,325.73789 L 597.12731,325.51626 L 599.30736,323.75424 L 601.36496,322.61114 L 601.59359,319.41041 L 602.50808,317.58143 L 600.90126,315.04253 L 601.70309,313.13572 L 603.96635,311.35746 L 606.06793,310.71081 L 608.81616,312.0041 L 612.3727,313.29738 L 613.50433,312.97406 L 613.66599,310.71081 L 612.3727,308.2859 L 612.69602,306.02265 L 614.63595,304.56771 L 617.22253,303.92106 L 618.83913,303.27442 L 618.03083,301.49615 L 617.38419,299.55622 L 618.51581,298.74792 L 619.5666,295.43386 L 622.55732,293.73643 L 628.37711,292.76647 L 631.93365,292.28149 L 633.38859,294.22142 L 635.16686,295.02972 L 636.94513,291.79651 L 639.85502,290.34156 L 641.79495,291.95817 L 642.60325,293.08979 L 644.70485,292.60481 L 644.54318,289.20994 L 647.45308,287.59333 L 648.5847,286.78502 L 649.71632,288.40163 L 654.40449,288.40163 L 655.21279,286.30004 L 654.88947,284.0368 L 657.79936,280.48025 L 662.48752,276.6004 L 662.9725,272.0739 L 665.72074,271.75058 L 669.60059,269.97231 L 672.34883,268.03238 L 672.0255,266.09245 L 670.57055,264.63751 L 671.13637,262.4551 L 675.25872,262.2126 L 677.68363,261.4043 L 680.59352,263.0209 L 682.21013,267.38574 L 688.02992,267.70906 L 689.80818,269.48733 L 691.90977,269.64899 L 694.33468,268.19405 L 697.40623,268.67903 L 698.69952,270.13397 L 701.44776,267.5474 L 703.22602,266.25411 L 704.84263,266.25411 L 705.48927,269.00235 L 707.26754,269.97231 L 709.68933,272.18738 L 709.85099,277.68384 L 710.65929,279.30045 L 713.24587,280.75539 L 713.89251,283.01865 L 716.8024,286.73684 L 719.38896,289.48508 L 722.78301,291.4561 z "
     id="KY"
     style="fill:#cccccc;fill-opacity:1" />
  <path
     d="M 732.43589,188.64593 L 726.34235,192.69928 L 722.4625,194.96253 L 719.06763,198.68072 L 715.02612,202.56057 L 711.79291,203.36887 L 708.88302,203.85385 L 703.38656,206.44042 L 701.28498,206.60208 L 697.89011,203.53053 L 692.71697,204.17718 L 690.13041,202.72223 L 687.74934,201.3714 L 682.85677,202.07481 L 672.67215,203.69142 L 664.91243,204.90388 L 666.20572,219.53416 L 667.98399,233.27533 L 670.57055,256.71613 L 671.13637,261.5473 L 675.25872,261.41828 L 677.68363,260.60997 L 681.04743,262.11311 L 683.11792,266.47794 L 688.25686,266.46084 L 690.1486,268.57954 L 691.90977,268.51424 L 694.44816,267.17278 L 696.95233,267.54428 L 698.92646,268.99923 L 700.65343,266.86655 L 702.99908,265.57327 L 705.06957,264.89242 L 705.71621,267.64066 L 707.49449,268.61062 L 710.97018,270.95469 L 713.1526,270.87387 L 714.29822,269.72514 L 714.23293,268.33861 L 715.84954,266.88365 L 716.0112,261.87218 C 716.0112,261.87218 716.98116,257.99232 716.98116,257.99232 L 718.5014,256.55135 L 720.02163,257.45603 L 720.84704,258.66691 L 722.05794,258.49128 L 721.63513,256.08035 L 721.07087,255.43683 L 721.07087,253.01191 L 722.04084,251.71863 L 724.30408,248.32376 L 725.59737,246.86881 L 727.69896,247.35379 L 729.96221,245.73718 L 733.03376,242.34231 L 735.29702,238.46245 L 735.50686,233.03129 L 735.99184,228.0198 L 735.99184,223.33164 L 734.86022,220.26009 L 735.83018,218.80514 L 736.75069,217.85053 L 735.34578,208.0077 L 732.43589,188.64593 z "
     id="OH"
     style="fill:#cccccc;fill-opacity:1" />
  <path
     d="M 355.25168,137.4141 L 344.70253,136.60707 L 312.61454,133.31165 L 296.38233,131.25405 L 268.03312,127.13884 L 248.14296,124.16675 L 246.72387,135.34271 L 242.88464,159.60325 L 237.62631,190.01006 L 236.09531,200.52624 L 234.4256,212.41507 L 240.94947,213.34344 L 266.82883,215.84336 L 287.39795,218.15036 L 324.18167,222.26554 L 348.00271,225.12556 L 352.50702,180.93323 L 353.94689,155.55612 L 355.25168,137.4141 z "
     id="WY"
     style="fill:#cccccc;fill-opacity:1" />
  <path
     d="M 357.67064,115.91208 L 358.31846,104.76149 L 360.57695,79.974371 C 361.0342,74.944666 361.66066,71.502265 361.94869,64.564305 L 362.88845,50.01269 L 332.21413,47.204857 L 302.95358,43.648327 L 273.69304,39.606815 L 241.36094,34.27202 L 222.93165,30.87715 L 190.208,23.944414 L 185.72898,45.291946 L 189.15832,52.836487 L 187.78658,57.408939 L 189.61556,61.98139 L 192.81629,63.353129 L 197.43711,74.122582 L 200.13221,77.299105 L 200.58945,78.442223 L 204.01879,79.585341 L 204.47604,81.642934 L 197.38874,99.246887 L 197.38874,101.76174 L 199.90359,104.96245 L 200.81807,104.96245 L 205.61914,101.99036 L 206.30502,100.84724 L 207.90538,101.53311 L 207.67675,106.79143 L 210.42023,119.36568 L 213.39232,121.88052 L 214.3068,122.56639 L 216.13579,124.85261 L 215.67854,128.28196 L 216.36441,131.71129 L 217.50753,132.62579 L 219.79375,130.33956 L 222.53722,130.33956 L 225.73794,131.93992 L 228.25279,131.02543 L 232.368,131.02543 L 236.02595,132.62579 L 238.76943,132.16854 L 239.22667,129.19644 L 242.19876,128.51058 L 243.5705,129.88232 L 244.02775,133.08303 L 245.80717,134.448 L 247.34057,122.88293 L 268.03312,125.85502 L 296.22184,129.80976 L 312.77502,131.70688 L 344.2211,135.16278 L 355.21124,136.68685 L 356.26321,121.25959 L 357.67064,115.91208 z "
     id="MT"
     style="fill:#cccccc;fill-opacity:1" />
  <path
     d="M 163.11948,174.59792 C 140.5086,170.25464 148.97221,171.75092 141.97881,170.24718 L 146.40585,152.74471 L 150.74968,135.02646 L 152.12142,130.79694 L 154.63626,124.85276 L 153.37884,122.56653 L 150.86398,122.68084 L 150.06381,121.65204 L 150.52106,120.50893 L 150.86398,117.42252 L 155.32213,111.93557 L 157.15111,111.47833 L 158.29422,110.33522 L 158.86578,107.1345 L 159.78026,106.44864 L 163.66685,100.61876 L 167.55344,96.274927 L 167.78206,92.502659 L 164.35272,89.873496 L 163.03814,85.472513 L 163.43823,75.813215 L 167.09619,59.352382 L 171.55433,38.54773 L 175.3266,25.059008 L 176.08853,21.255822 L 189.08467,23.783933 L 184.92659,45.291946 L 187.8745,52.996968 L 186.82372,57.56942 L 188.81318,62.141871 L 192.0139,63.834562 L 196.47424,73.64115 L 199.16934,77.459586 L 199.78707,78.602704 L 203.21641,79.745822 L 203.67365,82.284838 L 196.74683,99.086407 L 197.06779,102.40364 L 199.7431,105.2834 L 201.62046,105.76483 L 206.42153,102.15084 L 206.78645,101.64962 L 206.94251,102.49598 L 207.19532,106.63095 L 209.77832,119.52616 L 213.23184,122.20147 L 213.6649,123.04782 L 215.81483,125.49452 L 215.03664,128.28196 L 215.7225,132.03224 L 217.66801,132.94674 L 219.79375,131.30243 L 222.37674,130.82099 L 225.73794,132.42135 L 228.25279,131.82781 L 232.04705,131.66733 L 236.02595,133.26769 L 238.76943,132.97093 L 239.70811,130.64073 L 242.19876,128.99201 L 242.9286,130.6847 L 243.54631,132.92255 L 245.85453,135.46159 L 242.08226,159.44277 L 236.9382,188.45153 L 232.779,188.13283 L 224.59476,186.60062 L 214.78818,184.77164 L 202.62502,182.39308 L 190.09694,179.88922 L 181.61372,178.04925 L 172.35451,176.38075 L 163.11948,174.59792 z "
     id="ID"
     style="fill:#cccccc;fill-opacity:1" />
  <path
     d="M 358.05332,327.01213 L 380.74411,328.09807 L 411.8368,329.24119 L 409.50219,352.69699 L 409.20543,370.85051 L 409.27357,372.9323 L 413.6174,376.75073 L 415.35405,377.57289 L 417.16326,377.8257 L 417.84913,376.57048 L 418.73945,377.4366 L 420.47609,377.91803 L 422.08086,377.18821 L 423.21956,377.59708 L 422.92279,381.00223 L 427.19848,382.03324 L 429.8738,382.85541 L 433.82854,383.38079 L 436.02242,385.20977 L 439.27152,383.6336 L 442.05896,383.99851 L 444.09237,386.78595 L 445.16733,387.10691 L 445.00686,389.07218 L 448.09547,390.23947 L 450.86312,388.43467 L 452.37114,388.79959 L 454.72552,388.96007 L 455.15859,390.83301 L 459.79918,392.82246 L 462.45473,392.61803 L 464.4442,388.50282 L 464.78492,388.50282 L 465.92804,390.39995 L 470.3642,391.40676 L 473.7012,392.61803 L 476.99425,393.37205 L 479.14419,392.61803 L 479.99053,390.10319 L 483.69245,390.10319 L 485.58958,390.85719 L 488.654,389.28102 L 489.31569,389.28102 L 489.6806,390.39995 L 493.95629,390.39995 L 496.35904,389.14473 L 498.02754,389.44149 L 499.44324,391.31444 L 502.32299,392.98294 L 505.84467,394.05791 L 508.58814,395.47582 L 511.03484,397.09814 L 514.32788,396.20785 L 516.26897,397.19048 L 516.78008,407.33011 L 517.11532,417.03228 L 517.80118,426.56629 L 518.32658,430.61334 L 521.00191,435.20998 L 522.07687,439.27682 L 525.93927,445.56615 L 526.48884,448.44592 L 527.01424,449.45273 L 526.32836,456.94892 L 523.67723,461.3367 L 524.63568,464.19668 L 524.27076,466.71153 L 523.42442,474.02746 L 522.05268,476.74675 L 522.65692,481.13298 L 516.99204,482.71816 L 507.13075,487.24466 L 506.16079,489.18458 L 503.57422,491.12451 L 501.47264,492.57945 L 500.17935,493.38775 L 494.52124,498.72255 L 491.77301,500.82414 L 486.43821,504.05734 L 480.7801,506.48225 L 474.47534,509.87712 L 472.69708,511.33207 L 466.8773,514.8886 L 463.48243,515.53524 L 459.60258,521.03169 L 455.56107,521.35502 L 454.5911,523.29494 L 456.85435,525.23487 L 455.3994,530.73132 L 454.10612,535.25782 L 452.9745,539.13767 L 452.1662,543.66416 L 452.9745,546.08907 L 454.75276,553.04047 L 455.72273,559.18356 L 457.50099,561.93179 L 456.53103,563.38674 L 453.45948,565.32666 L 447.80136,561.44681 L 442.30491,560.31519 L 441.01162,560.80017 L 437.77841,560.15353 L 433.57524,557.08198 L 428.40211,555.95036 L 420.80406,552.55549 L 418.70248,548.67563 L 417.40919,542.20922 L 414.17599,540.26929 L 413.52934,538.00604 L 414.17599,537.3594 L 414.49931,533.96453 L 413.20602,533.31789 L 412.55938,532.34793 L 413.85266,527.98309 L 412.23606,525.71985 L 409.00285,524.42656 L 405.60798,520.06173 L 402.05145,513.43365 L 397.84828,510.84708 L 398.00994,508.90716 L 392.67514,496.62096 L 391.86684,492.41779 L 390.08858,490.47787 L 389.92692,489.02292 L 383.94548,483.68813 L 381.35891,480.61658 L 381.35891,479.48495 L 378.77234,477.38337 L 371.9826,476.25174 L 364.54622,475.6051 L 361.47467,473.34186 L 356.94818,475.12012 L 353.39165,476.57507 L 351.1284,479.80827 L 350.15844,483.52647 L 345.79361,489.66956 L 343.3687,492.09447 L 340.78213,491.12451 L 339.00387,489.99288 L 337.06394,489.34624 L 333.18409,487.083 L 333.18409,486.43635 L 331.40583,484.49643 L 326.23269,482.39484 L 318.79631,474.63514 L 316.53306,469.94699 L 316.53306,461.86396 L 313.29985,455.39754 L 312.81487,452.64932 L 311.19827,451.67935 L 310.06664,449.57777 L 305.05517,447.47618 L 303.76189,445.85958 L 296.64882,437.93821 L 295.35554,434.705 L 290.66738,432.44175 L 289.21243,428.07688 L 286.62584,425.16701 L 284.68593,424.68205 L 284.0367,420.00441 L 292.03857,420.6903 L 321.07356,423.43375 L 350.10864,425.03411 L 352.39487,401.25735 L 356.28142,345.70233 L 357.88181,326.95501 L 359.25355,326.98359 M 458.2302,560.96127 L 457.66439,553.84819 L 454.91615,546.65427 L 454.35033,539.62202 L 455.88611,531.37731 L 459.20017,524.50672 L 462.67587,519.09107 L 465.82827,515.53452 L 466.47491,515.77702 L 461.70591,522.40512 L 457.34107,528.9524 L 455.3203,535.58049 L 454.99698,540.75365 L 455.88611,546.89677 L 458.47269,554.09069 L 458.95767,559.26383 L 459.11933,560.71879 L 458.2302,560.96127 z "
     id="TX"
     style="fill:#cccccc;fill-opacity:1" />
  <path
     d="M 138.74699,381.13864 L 136.11998,383.29697 L 135.79666,384.75192 L 136.28164,385.72188 L 155.19591,396.39147 L 167.32045,403.98951 L 182.03155,412.55752 L 198.84424,422.58047 L 211.13044,425.00538 L 236.25838,427.71029 L 238.7892,415.20334 L 242.54187,387.9604 L 249.50673,335.07924 L 253.76399,304.11355 L 229.16728,300.43478 L 201.96119,295.86233 L 168.53204,289.54465 L 165.61014,307.63649 L 165.1529,308.09374 L 163.43823,310.7229 L 160.92338,310.60858 L 159.66596,307.86511 L 156.92249,307.52218 L 156.00799,306.37907 L 155.09351,306.37907 L 154.17901,306.95063 L 152.23572,307.97943 L 152.12142,314.95241 L 151.89278,316.66708 L 151.32124,329.24132 L 149.83519,331.41323 L 149.26363,334.72826 L 152.0071,339.64365 L 153.26452,345.47353 L 154.06471,346.50233 L 155.09351,347.07389 L 154.97919,349.36011 L 153.37884,350.73184 L 149.9495,352.44651 L 148.00621,354.38981 L 146.52016,358.04776 L 145.9486,362.96315 L 143.09082,365.70662 L 141.03322,366.39249 L 140.91891,372.22237 L 140.46166,373.93704 L 140.91891,374.73722 L 144.57687,375.30876 L 144.00531,378.05224 L 142.51926,380.22415 L 138.74699,381.13864 z "
     id="AZ"
     style="fill:#cc6600;fill-opacity:1" />
  <path
     d="M 141.65786,171.21005 L 162.63805,175.72127 L 172.35451,177.66457 L 181.61372,179.49354 L 188.22838,181.12687 L 187.67001,186.99192 L 184.12636,204.32107 L 180.03314,224.30136 L 178.08985,234.02003 L 175.91793,247.30212 L 172.76337,263.71677 L 169.24171,279.4016 L 167.27332,289.58196 L 164.80775,306.35268 L 164.35051,307.45183 L 163.27775,309.92051 L 161.40481,309.8062 L 160.30786,307.06273 L 157.56439,306.55931 L 156.16847,305.57668 L 154.13064,305.89764 L 153.21615,306.62968 L 151.91477,307.97943 L 151.47951,314.95241 L 150.92992,316.66708 L 150.51885,328.75989 L 149.19675,330.47405 L 147.32033,328.21252 L 132.80281,305.46457 L 113.36989,276.42951 L 90.621946,242.59337 L 78.240446,224.01133 L 79.87668,217.44489 L 86.849676,191.49623 L 94.737155,160.14838 L 128.34467,168.29102 L 142.06203,171.26311"
     id="NV"
     style="fill:#cccccc;fill-opacity:1" />
  <path
     d="M 253.97063,302.94522 L 229.32776,299.47192 L 202.76357,294.57852 L 168.93683,288.55857 L 170.52553,279.4016 L 173.72624,264.19821 L 177.04127,247.62307 L 179.21319,234.02003 L 181.15648,225.10375 L 184.92875,204.64202 L 188.4724,187.1524 L 189.58694,181.57972 L 202.30406,183.83737 L 214.30675,185.89497 L 224.59476,187.72396 L 232.93948,189.0957 L 236.61725,189.57486 L 235.13245,200.20528 L 232.82083,213.37794 L 240.62852,214.30631 L 257.03504,216.1111 L 265.24601,216.96674 L 263.11553,238.9353 L 259.91482,261.5008 L 256.16215,289.32698 L 254.49601,300.43478 L 253.97063,302.94522 z "
     id="UT"
     style="fill:#cc6600;fill-opacity:1" />
  <path
     d="M 379.62078,250.43452 L 381.06066,229.15284 L 348.96558,226.08841 L 324.50262,223.38887 L 287.23746,219.2737 L 266.5471,216.75888 L 263.91791,238.9353 L 260.7172,261.34032 L 256.96454,289.32698 L 255.45888,300.43478 L 255.20828,303.19804 L 289.13455,306.99229 L 326.87526,311.25886 L 358.83587,314.42473 L 375.44407,315.27107"
     id="CO"
     style="fill:#cc6600;fill-opacity:1" />
  <path
     d="M 283.72425,424.68323 L 283.07384,418.56013 L 291.71762,419.08553 L 321.23405,422.14993 L 349.62721,423.58982 L 351.59248,401.25735 L 355.31856,345.38138 L 356.43752,325.99215 L 358.45116,326.34168 L 358.43687,315.26668 L 326.23335,312.86362 L 289.29503,308.43658 L 254.83017,304.32137 L 250.63006,335.07924 L 243.6652,388.28135 L 239.91254,415.20334 L 237.86315,428.51268 L 253.32382,430.50183 L 254.6171,420.47888 L 271.26813,423.06545 L 283.72425,424.68323 z "
     id="NM"
     style="fill:#cc6600;fill-opacity:1" />
  <path
     d="M 472.30528,121.30669 L 471.94037,113.81052 L 469.95092,106.4946 L 468.12193,92.845379 L 467.66469,83.014601 L 465.67523,79.906209 L 464.07487,74.555563 L 464.07487,64.267543 L 464.76073,60.380956 L 462.64538,54.881945 L 434.22188,54.317918 L 415.63093,53.671276 L 389.11861,52.377992 L 364.17227,50.494123 L 362.91155,64.724786 L 361.53981,79.81389 L 359.28133,104.76149 L 358.79515,115.78171 L 415.61127,119.54586 L 472.30528,121.30669 z "
     id="ND"
     style="fill:#cccccc;fill-opacity:1" />
  <path
     d="M 473.79706,196.81913 L 472.84336,195.73826 L 471.32265,192.11157 L 473.15163,188.40965 L 474.20241,182.85456 L 471.61942,180.79695 L 471.32265,178.05349 L 471.91618,175.0572 L 474.06612,174.25481 L 474.36289,168.51947 L 474.29475,138.43361 L 473.67702,135.46152 L 469.56181,131.87171 L 468.57918,129.88225 L 468.57918,127.96093 L 470.4763,126.68153 L 472.00852,124.82836 L 472.19098,122.10907 L 414.80889,120.50872 L 358.63468,116.62213 L 357.86798,121.90149 L 356.25497,137.76973 L 354.90976,155.7166 L 353.30941,180.31332 L 369.33718,181.34212 L 388.97453,182.48523 L 406.96758,183.78882 L 430.74434,185.0924 L 441.4896,184.31421 L 444.34959,186.60044 L 448.66923,189.57254 L 449.65187,190.32654 L 453.19331,189.43623 L 457.24038,189.13947 L 459.98385,189.07132 L 463.09665,190.28259 L 467.64491,191.72247 L 470.77747,193.4833 L 471.3952,195.40461 L 472.30969,197.30174 L 473.01534,196.8203 L 473.79706,196.81913 z "
     id="SD"
     style="fill:#cccccc;fill-opacity:1" />
  <path
     d="M 485.24444,240.62793 L 486.61618,243.30326 L 486.70851,245.42901 L 489.06288,249.15512 L 491.78217,252.30746 L 486.73269,252.30746 L 443.25013,251.36878 L 402.46327,250.47848 L 381.27171,249.51783 L 382.34448,228.18998 L 348.96558,225.44651 L 353.30941,181.43665 L 368.85574,182.46546 L 388.97453,183.60856 L 406.8071,184.75168 L 430.58386,185.89479 L 441.32912,185.43755 L 443.38672,187.72377 L 448.1878,190.69587 L 449.33091,191.61036 L 453.67474,190.23862 L 457.56133,189.78138 L 460.3048,189.55275 L 462.13378,190.92449 L 467.16348,192.52485 L 470.13557,194.12521 L 470.59282,195.72557 L 471.50731,197.78317 L 473.33629,197.78317 L 474.13427,197.82934 L 475.11689,203.04149 L 477.86037,211.06747 L 479.09582,215.70806 L 481.22156,219.52651 L 481.74695,224.46387 L 483.18684,228.73955 L 483.73641,235.20915"
     id="NE"
     style="fill:#cccccc;fill-opacity:1" />
  <path
     d="M 567.59351,195.26666 L 567.76414,197.20911 L 570.05036,198.34887 L 571.1918,199.60545 L 571.53556,200.86706 L 575.42215,204.06946 L 576.10802,206.24221 L 575.30868,209.10418 L 573.82012,212.64866 L 573.02078,215.39045 L 570.84803,216.99249 L 569.13252,217.56489 L 563.64725,219.05009 L 562.96138,221.33298 L 562.16204,223.61753 L 562.73443,224.98927 L 564.44994,226.70311 L 564.44826,230.3644 L 562.27886,231.96476 L 561.81995,233.45165 L 561.81995,235.96817 L 560.33139,236.42541 L 558.61755,237.79548 L 558.16198,239.28069 L 558.61755,240.99787 L 557.24331,242.20232 L 554.94955,239.51099 L 553.46601,236.88434 L 545.12548,237.68367 L 534.95428,238.2544 L 509.91758,238.94195 L 496.88274,239.17057 L 487.50922,239.39919 L 486.19344,239.52044 L 484.53879,235.04867 L 484.31017,228.4186 L 482.70981,224.30339 L 482.02395,219.04508 L 479.73772,215.38711 L 478.82324,210.58604 L 476.07976,203.04149 L 474.93665,197.66885 L 473.56491,195.49694 L 471.96455,192.75348 L 473.79353,188.40965 L 475.16527,182.69408 L 472.4218,180.63647 L 471.96455,177.893 L 472.87905,175.37815 L 474.59372,175.37815 L 486.13916,175.37815 L 535.75027,174.69228 L 555.62705,174.00642 L 557.47778,176.75323 L 559.31012,179.37486 L 559.76569,180.17923 L 557.93503,182.92772 L 558.3906,187.14971 L 560.90546,191.0363 L 563.8742,192.86025 L 566.27892,193.09055 L 567.59351,195.26666 z "
     id="IA"
     style="fill:#cccccc;fill-opacity:1" />
  <path
     d="M 625.55882,460.60781 L 625.30456,461.86396 L 620.13142,461.86396 L 618.67648,461.05566 L 616.57489,460.73234 L 609.78515,462.67226 L 608.00689,461.86396 L 605.42032,466.06713 L 604.31778,466.84515 L 603.19395,464.35717 L 602.05083,460.47058 L 598.6215,457.26987 L 599.7646,449.72532 L 599.07874,448.81083 L 597.24976,449.03945 L 589.01934,449.72532 L 564.78534,450.41119 L 564.3281,448.81083 L 565.01397,440.80903 L 568.44331,434.63622 L 573.70163,425.49132 L 572.78714,423.43372 L 573.93025,423.43372 L 574.61612,420.233 L 572.32989,418.40402 L 572.55852,416.57504 L 570.50091,412.00259 L 570.21513,406.65853 L 571.58686,404.00079 L 571.18678,399.65696 L 569.81504,396.68486 L 571.18678,395.31313 L 569.81504,393.25553 L 570.27229,391.42655 L 571.18678,385.25373 L 574.15887,382.51027 L 573.473,380.45266 L 577.13097,375.19433 L 579.87444,374.27985 L 579.87444,371.765 L 579.18857,370.39326 L 581.93204,365.13495 L 584.67551,363.99183 L 584.78295,360.57975 L 593.4584,360.50231 L 617.54585,358.56239 L 622.12643,358.33376 L 622.13451,364.70548 L 622.29617,381.35654 L 621.48787,412.39539 L 621.32621,426.45988 L 624.07445,445.21252 L 625.55882,460.60781 z "
     id="MS"
     style="fill:#cccccc;fill-opacity:1" />
  <path
     d="M 619.42049,294.49343 L 619.48577,291.63485 L 619.97076,287.10834 L 622.234,284.19846 L 624.01228,280.31859 L 626.59884,276.11542 L 626.11386,270.29563 L 624.3356,267.5474 L 624.01228,264.31419 L 624.82058,258.81772 L 624.3356,251.86631 L 623.0423,235.8619 L 621.74902,220.50414 L 620.77855,208.78412 L 623.84961,209.67363 L 625.30456,210.64359 L 626.43618,210.32027 L 628.53777,208.38035 L 631.36734,206.76336 L 636.46014,206.60132 L 658.44601,204.33806 L 664.02174,203.8049 L 665.52488,219.76111 L 669.77623,256.60266 L 670.37469,262.37426 L 670.00319,264.63751 L 671.23117,266.43288 L 671.32756,267.80543 L 668.80627,269.40494 L 665.26684,270.95625 L 662.06471,271.50653 L 661.46625,276.37346 L 656.89156,279.68593 L 654.09514,283.69637 L 654.41846,286.0731 L 653.83712,287.6073 L 650.51065,287.6073 L 648.92512,285.9907 L 646.43181,287.2529 L 643.74885,288.75604 L 643.91052,291.81049 L 642.71673,292.06852 L 642.24885,291.05038 L 640.08197,289.54724 L 636.83165,290.88872 L 635.28034,293.89497 L 633.8425,293.08667 L 632.38755,291.48716 L 627.92321,291.97215 L 622.33038,292.94211 L 619.42049,294.49343 z "
     id="IN"
     style="fill:#cccccc;fill-opacity:1" />
  <path
     d="M 556.78857,243.16561 L 554.2687,240.07836 L 553.12558,237.79213 L 545.35242,238.478 L 535.52164,238.93524 L 510.14453,239.84974 L 496.6558,240.07836 L 488.76835,240.19267 L 486.48209,240.30698 L 487.73952,242.82183 L 487.5109,245.10805 L 490.02574,248.99464 L 493.11214,253.10985 L 496.19855,255.85332 L 498.48478,256.08194 L 499.85651,256.99644 L 499.85651,259.96853 L 498.02754,261.56889 L 497.57028,263.85511 L 499.62789,267.28446 L 502.14275,270.25655 L 504.65759,272.08553 L 506.02932,283.74528 L 505.34346,319.06749 L 505.57208,323.75424 L 506.02932,329.13775 L 529.46231,329.02093 L 552.66834,328.33506 L 573.473,327.53405 L 585.12774,327.30375 L 587.29714,330.72975 L 586.61295,334.03725 L 583.5257,336.44029 L 582.95331,338.27763 L 588.3318,338.73489 L 592.22676,338.04901 L 593.94394,332.55538 L 594.59536,326.69859 L 596.91436,324.67376 L 598.62651,323.18687 L 600.68412,322.15723 L 600.79926,319.29694 L 601.37334,317.58143 L 600.34202,315.83316 L 597.59688,315.97773 L 595.42748,313.35274 L 594.05406,309.12407 L 594.85507,306.60587 L 592.91094,303.17821 L 591.0803,298.60241 L 586.28089,297.80307 L 579.31209,292.20432 L 577.59323,288.09079 L 578.39258,284.89007 L 580.45185,278.8324 L 580.91077,275.96877 L 578.96163,274.93746 L 572.10629,274.13979 L 571.07832,272.42763 L 570.96652,268.19727 L 565.47958,264.76626 L 558.50407,256.99476 L 556.21785,249.67883 L 555.98756,245.45351 L 556.78857,243.16561 z "
     id="MO"
     style="fill:#cccccc;fill-opacity:1" />
  <path
     d="M 591.95215,338.59154 L 588.10485,339.52921 L 581.93204,339.07196 L 582.61791,336.09987 L 585.81863,333.3564 L 586.27587,331.07017 L 584.44689,328.09807 L 573.473,328.55532 L 552.66834,329.46981 L 529.34883,330.15568 L 506.02932,330.61292 L 507.62968,337.47161 L 507.62967,345.70203 L 509.00142,356.67602 L 509.23004,394.51295 L 511.51627,396.45624 L 514.48836,395.08451 L 517.23184,396.22762 L 517.66218,406.55092 L 540.548,406.40887 L 559.41187,405.60785 L 569.53344,405.41032 L 570.67907,403.31995 L 570.39245,399.77044 L 568.56682,396.79834 L 570.16551,395.31313 L 568.56682,392.80163 L 569.25102,390.2918 L 570.61941,384.68637 L 573.1376,382.62374 L 572.45173,380.33918 L 576.1097,374.96739 L 578.85317,373.599 L 578.73969,372.10542 L 578.39425,370.27978 L 581.2512,364.68105 L 583.65424,363.42446 L 584.03837,359.99683 L 585.80904,358.75513 L 586.66552,354.52086 L 585.32406,350.51042 L 589.36558,348.13371 L 589.91584,346.11451 L 591.15112,341.84693 L 591.95215,338.59154 z "
     id="AR"
     style="fill:#cccccc;fill-opacity:1" />
  <path
     d="M 376.34313,316.20969 L 365.65498,315.7525 L 359.22497,315.26668 L 359.48217,315.46671 L 358.77873,325.88881 L 380.74411,327.29569 L 412.79966,328.59929 L 410.46506,353.01794 L 410.00781,370.85051 L 410.23644,372.45087 L 414.58027,376.10883 L 416.63787,377.25194 L 417.32374,377.02332 L 418.00961,374.96571 L 419.38135,376.7947 L 421.43895,376.7947 L 421.43895,375.42296 L 424.18242,376.7947 L 423.72518,380.68128 L 427.84039,380.9099 L 430.35523,382.05302 L 434.47044,382.73889 L 436.98529,384.56787 L 439.27152,382.51027 L 442.70086,383.19613 L 445.21571,386.62547 L 446.13019,386.62547 L 446.13019,388.9117 L 448.41642,389.59756 L 450.70264,387.31134 L 452.53163,387.9972 L 455.04647,387.9972 L 455.96097,390.51206 L 460.76204,392.34103 L 462.13378,391.65517 L 463.96276,387.53996 L 465.10587,387.53996 L 466.24899,389.59756 L 470.3642,390.28343 L 474.02215,391.65517 L 476.99425,392.56966 L 478.82324,391.65517 L 479.5091,389.14032 L 483.85293,389.14032 L 485.91053,390.05481 L 488.654,387.9972 L 489.79712,387.9972 L 490.48299,389.59756 L 494.59819,389.59756 L 496.19855,387.53996 L 498.02754,387.9972 L 500.08514,390.51206 L 503.28585,392.34103 L 506.48658,393.25553 L 508.42766,394.37446 L 508.03856,357.15745 L 506.66681,346.18347 L 506.50635,337.31113 L 505.06646,330.7734 L 504.28826,323.59376 L 504.22012,319.77754 L 492.08328,320.09628 L 445.67324,319.63904 L 400.63433,317.58142 L 376.34313,316.20969 z "
     id="OK"
     style="fill:#cccccc;fill-opacity:1" />
  <path
     d="M 504.38059,318.76851 L 491.76233,318.97294 L 445.67324,318.51571 L 401.11576,316.45808 L 376.48602,315.20067 L 380.62981,250.4807 L 402.46327,251.28087 L 442.92918,252.6526 L 487.05364,253.10985 L 492.14927,253.10985 L 495.39617,256.33475 L 498.16383,256.56337 L 499.05413,257.63834 L 499.05413,259.64757 L 497.22515,261.24794 L 496.7679,263.85511 L 498.98598,267.44494 L 501.50084,270.5775 L 504.01569,272.56696 L 505.06646,283.74528 L 504.38059,318.76851 z "
     id="KS"
     style="fill:#cccccc;fill-opacity:1" />
  <path
     d="M 603.20213,466.63296 L 602.17268,464.01674 L 601.02956,460.92448 L 597.7137,457.38334 L 598.62986,450.63311 L 598.51137,449.49168 L 597.24976,449.83378 L 589.01934,450.74659 L 563.99102,451.20551 L 563.30683,448.81083 L 564.21964,440.35513 L 567.53552,434.40928 L 572.56688,425.71826 L 571.99281,423.32024 L 573.2494,422.63939 L 573.70833,420.6869 L 571.42209,418.63097 L 571.3103,416.68852 L 569.47964,412.34301 L 569.02323,406.40216 L 559.2984,406.51564 L 540.0941,407.43014 L 517.88913,407.45871 L 517.9177,417.03228 L 518.60357,426.40581 L 519.28944,430.29239 L 521.80429,434.4076 L 522.71878,439.43731 L 527.06261,444.92424 L 527.29123,448.12496 L 527.9771,448.81083 L 527.29123,457.26987 L 524.31914,462.29956 L 525.9195,464.35717 L 525.23362,466.87201 L 524.54776,474.18794 L 523.17602,477.38865 L 523.29848,481.0051 L 527.98496,479.48495 L 536.06798,479.16163 L 546.41425,482.71816 L 552.88067,483.84979 L 556.59886,482.39484 L 559.83207,483.52647 L 563.06528,484.49643 L 563.87358,482.39484 L 560.64037,481.26322 L 558.0538,481.7482 L 555.30557,480.1316 C 555.30557,480.1316 555.46724,478.83831 556.11388,478.67665 C 556.76052,478.51499 559.18543,477.70669 559.18543,477.70669 L 560.96369,479.16163 L 562.74196,478.19167 L 565.97517,478.83831 L 567.43011,481.26322 L 567.75343,483.52647 L 572.27992,483.84979 L 574.05819,485.62805 L 573.24989,487.24466 L 571.9566,488.05296 L 573.57321,489.66956 L 581.97955,493.22609 L 585.53608,491.93281 L 586.50605,489.5079 L 589.09261,488.86126 L 590.87088,487.40632 L 592.16416,488.37628 L 592.97246,491.28617 L 590.70922,492.09447 L 591.35586,492.74111 L 594.75073,491.44783 L 597.01398,488.05296 L 597.82228,487.56798 L 595.72069,487.24466 L 596.52899,485.62805 L 596.36733,484.17311 L 598.46892,483.68813 L 599.60054,482.39484 L 600.24718,483.20314 C 600.24718,483.20314 600.08552,486.27469 600.89383,486.27469 C 601.70213,486.27469 605.097,486.92134 605.097,486.92134 L 609.13851,488.86126 L 610.10847,490.31621 L 613.01836,490.31621 L 614.14999,491.28617 L 616.41323,488.21462 L 616.41323,486.75967 L 615.11995,486.75967 L 611.72508,484.01145 L 605.9053,483.20314 L 602.67209,480.9399 L 603.80372,478.19167 L 606.06696,478.51499 L 606.22862,477.86835 L 604.45036,476.89839 L 604.45036,476.4134 L 607.68357,476.4134 L 609.46183,473.34186 L 608.16855,471.40193 L 607.84523,468.6537 L 606.39028,468.81536 L 604.45036,470.91695 L 603.80372,473.50352 L 600.73217,472.85687 L 599.7622,471.07861 L 601.54047,469.13868 L 603.56122,467.36043 L 603.20213,466.63296 z "
     id="LA"
     style="fill:#cccccc;fill-opacity:1" />
  <path
     d="M 829.90662,262.88393 L 829.76271,260.9369 L 836.21614,258.38702 L 835.44573,261.60486 L 832.52578,265.38397 L 832.10769,269.96979 L 832.56944,273.36023 L 830.74147,278.33839 L 828.5772,280.25453 L 827.10686,275.61372 L 827.55275,270.16461 L 829.13975,265.98154 L 829.90662,262.88393 z M 832.18615,291.18529 L 774.01197,303.76072 L 736.585,309.03979 L 729.90667,308.66461 L 727.32142,310.59099 L 719.98229,310.81168 L 711.60018,311.78935 L 702.67396,312.74106 L 711.15465,307.79277 L 711.14153,305.71784 L 712.66158,303.57171 L 723.21536,292.07028 L 727.16208,296.54774 L 730.94509,297.51172 L 733.48855,296.3714 L 735.72577,295.06024 L 738.26238,296.40376 L 742.17655,294.976 L 744.05328,290.41966 L 746.6542,290.95968 L 749.50944,288.82843 L 751.30871,289.32203 L 754.13592,285.64546 L 754.48417,283.56235 L 753.52051,282.28678 L 754.52328,280.42015 L 759.79755,268.143 L 760.41432,262.40792 L 761.64321,261.88438 L 763.82174,264.32725 L 767.7576,264.02608 L 769.68681,256.45245 L 772.4808,255.89159 L 773.53055,253.15052 L 776.11037,250.80364 L 777.37834,248.46143 L 778.8822,245.10845 L 778.96713,240.0409 L 788.78864,243.86372 C 789.46949,244.20414 789.44474,239.07974 789.44474,239.07974 L 793.49505,240.45709 L 793.03305,243.08589 L 801.18916,246.02555 L 802.48203,247.81994 L 801.61409,251.50208 L 800.35101,252.8279 L 799.84509,254.57394 L 800.339,256.97666 L 802.29798,258.25504 L 806.21607,259.70025 L 809.16474,260.66821 L 814.02121,261.61032 L 816.17352,263.69878 L 819.36396,264.10131 L 820.23203,265.30133 L 819.79254,269.99141 L 821.16727,271.09396 L 820.68832,273.02435 L 821.91773,273.81412 L 821.69593,275.19872 L 819.00194,275.10378 L 819.0909,276.7193 L 821.37189,278.26217 L 821.49343,279.67407 L 823.26654,281.45945 L 823.75833,283.98358 L 821.20529,285.36489 L 822.77751,286.85919 L 828.57853,285.17336 L 832.18615,291.18529 z "
     id="VA"
     style="fill:#cccccc;fill-opacity:1" />
  <path
     d="M 234.08751,512.94771 L 236.02744,509.39116 L 238.2907,509.06784 L 238.61402,509.87614 L 236.51242,512.94771 L 234.08751,512.94771 z M 244.27217,509.2295 L 250.4153,511.81607 L 252.51689,511.49275 L 254.1335,507.61288 L 253.48686,504.218 L 249.28366,503.73302 L 245.24213,505.51129 L 244.27217,509.2295 z M 274.9878,519.2525 L 278.706,524.74897 L 281.13092,524.42565 L 282.26255,523.94067 L 283.7175,525.23396 L 287.43571,525.0723 L 288.40568,523.61735 L 285.49577,521.83908 L 283.55584,518.12086 L 281.45424,514.56432 L 275.63444,517.47422 L 274.9878,519.2525 z M 295.19545,528.14387 L 296.48874,526.20393 L 301.17691,527.17389 L 301.82356,526.68891 L 307.96668,527.33555 L 307.64336,528.62885 L 305.05678,530.08379 L 300.69193,529.76047 L 295.19545,528.14387 z M 300.53027,533.31702 L 302.47021,537.19689 L 305.54176,536.06526 L 305.86509,534.44864 L 304.24848,532.34705 L 300.53027,532.02373 L 300.53027,533.31702 z M 307.4817,532.18539 L 309.74496,529.27549 L 314.43313,531.70041 L 318.79798,532.83204 L 323.16284,535.58028 L 323.16284,537.52021 L 319.6063,539.29849 L 314.75645,540.26845 L 312.33154,538.8135 L 307.4817,532.18539 z M 324.13281,547.70486 L 325.74942,546.41158 L 329.14431,548.0282 L 336.74238,551.58474 L 340.13727,553.68633 L 341.75387,556.11125 L 343.69381,560.4761 L 347.73534,563.06268 L 347.41202,564.35598 L 343.53215,567.5892 L 339.32896,569.04415 L 337.87401,568.39751 L 334.80244,570.17577 L 332.37753,573.409 L 330.11427,576.3189 L 328.33599,576.15724 L 324.77945,573.57066 L 324.45613,569.04415 L 325.10277,566.61923 L 323.48616,560.96109 L 321.38456,559.18281 L 321.2229,556.59623 L 323.48616,555.62627 L 325.58776,552.55471 L 326.07274,551.58474 L 324.45613,549.80646 L 324.13281,547.70486 z "
     id="HI"
     style="fill:#cccccc;fill-opacity:1" />
  <path
     d="M 875.07001,173.46167 L 874.58706,169.25727 L 873.77876,164.89243 L 872.08133,158.99182 L 877.82028,157.45604 L 879.43688,158.58766 L 882.83176,162.9525 L 885.74063,167.39879 L 882.82968,168.93519 L 881.5364,168.77353 L 880.40478,170.5518 L 877.97987,172.49172 L 875.07001,173.46167 z "
     id="RI"
     style="fill:#cccccc;fill-opacity:1" />
  <path
     d="M 874.19331,173.68861 L 873.56579,169.48422 L 872.75749,165.11938 L 871.14088,159.13793 L 866.989,160.04261 L 845.16479,164.81159 L 845.81143,168.12565 L 847.26638,175.40039 L 847.26638,183.48342 L 846.13475,185.74668 L 847.96715,187.8558 L 852.9225,184.4546 L 856.47903,181.22139 L 858.41895,179.1198 L 859.22726,179.76644 L 861.97548,178.3115 L 867.14862,177.17988 L 874.19331,173.68861 z "
     id="CT"
     style="fill:#cccccc;fill-opacity:1" />
  <path
     d="M 900.97704,167.48944 L 903.14896,166.80356 L 903.60622,165.08889 L 904.63502,165.2032 L 905.66382,167.48944 L 904.4064,167.94668 L 900.5198,168.061 L 900.97704,167.48944 z M 891.6035,168.28962 L 893.88972,165.66045 L 895.49009,165.66045 L 897.31908,167.1465 L 894.91854,168.1753 L 892.74662,169.2041 L 891.6035,168.28962 z M 856.80437,146.30143 L 874.26374,142.09825 L 876.527,141.45161 L 878.62858,138.2184 L 882.36535,136.55509 L 885.25459,140.96793 L 882.82968,146.14107 L 882.50636,147.59601 L 884.44629,150.18258 L 885.57791,149.37428 L 887.35618,149.37428 L 889.61942,151.96084 L 893.49928,157.94228 L 897.05581,158.42726 L 899.31905,157.4573 L 901.09732,155.67903 L 900.28901,152.93081 L 898.18743,151.3142 L 896.73248,152.1225 L 895.76252,150.82922 L 896.2475,150.34424 L 898.34909,150.18258 L 900.12735,150.99088 L 902.06728,153.41579 L 903.03724,156.32568 L 903.36056,158.75058 L 899.15739,160.20553 L 895.27754,162.14545 L 891.39769,166.67195 L 889.45776,168.12689 L 889.45776,167.15693 L 891.88267,165.70198 L 892.36765,163.92372 L 891.55935,160.85217 L 888.64946,162.30711 L 887.84116,163.76206 L 888.32614,166.0253 L 886.25981,167.02573 L 883.51261,162.4986 L 880.11773,158.13376 L 878.04723,156.32129 L 871.51396,158.19749 L 866.42163,159.24828 L 844.59742,164.01727 L 844.19483,159.07264 L 844.84147,148.48387 L 850.01462,147.59473 L 856.80437,146.30143 z "
     id="MA"
     style="fill:#cccccc;fill-opacity:1" />
  <path
     d="M 924.21476,70.968946 L 926.15469,73.070532 L 928.41794,76.788723 L 928.41794,78.728649 L 926.31635,83.416802 L 924.37642,84.063444 L 920.98155,87.134993 L 916.13174,92.631449 C 916.13174,92.631449 915.4851,92.631449 914.83846,92.631449 C 914.19182,92.631449 913.86849,90.529863 913.86849,90.529863 L 912.09023,90.691523 L 911.12027,92.146468 L 908.69536,93.601412 L 907.7254,95.056357 L 909.342,96.511297 L 908.85702,97.157947 L 908.37204,99.906167 L 906.43211,99.744507 L 906.43211,98.127907 L 906.10879,96.834617 L 904.65385,97.157947 L 902.87558,93.924737 L 900.774,95.218017 L 902.06728,96.672957 L 902.3906,97.804587 L 901.5823,99.097867 L 901.90562,102.16942 L 902.06728,103.78602 L 900.45068,106.37259 L 897.54079,106.85757 L 897.21747,109.76746 L 891.88267,112.83901 L 890.58939,113.32399 L 888.97278,111.86905 L 885.90123,115.42558 L 886.8712,118.65879 L 885.41625,119.95207 L 885.25459,124.3169 L 884.13131,130.57626 L 881.66906,129.42031 L 881.18407,126.34875 L 877.30422,125.21712 L 876.9809,122.46888 L 869.70615,99.028057 L 865.50757,85.388315 L 866.92811,85.27015 L 868.4419,85.680049 L 868.4419,83.093481 L 869.2502,77.597025 L 871.83677,72.908872 L 873.29172,68.86736 L 871.35179,66.442453 L 871.35179,60.461016 L 872.16009,59.491053 L 872.9684,56.742825 L 872.80674,55.287881 L 872.64507,50.438067 L 874.42334,45.588253 L 877.33323,36.696927 L 879.43481,32.493755 L 880.7281,32.493755 L 882.02138,32.655415 L 882.02138,33.787038 L 883.31467,36.050285 L 886.06289,36.696927 L 886.8712,35.888624 L 886.8712,34.918662 L 890.91271,32.008773 L 892.69097,30.230508 L 894.14592,30.392169 L 900.12735,32.817076 L 902.06728,33.787038 L 911.12027,63.694225 L 917.1017,63.694225 L 917.91001,65.634151 L 918.07167,70.483965 L 920.98155,72.747211 L 921.78986,72.747211 L 921.95152,72.26223 L 921.46654,71.130607 L 924.21476,70.968946 z M 903.28301,101.11648 L 904.81879,99.580697 L 906.19291,100.6315 L 906.75872,103.05642 L 905.06128,103.94555 L 903.28301,101.11648 z M 909.99194,95.215857 L 911.77021,97.074957 C 911.77021,97.074957 913.0635,97.155777 913.0635,96.832457 C 913.0635,96.509137 913.30599,94.811697 913.30599,94.811697 L 914.19513,94.003397 L 913.38682,92.22512 L 911.36606,92.952597 L 909.99194,95.215857 z "
     id="ME"
     style="fill:#cccccc;fill-opacity:1" />
  <path
     d="M 881.79902,136.06299 L 882.66802,134.98649 L 883.75824,131.69547 L 881.21516,130.782 L 880.73017,127.71044 L 876.85032,126.57882 L 876.527,123.83058 L 869.25225,100.38976 L 864.65083,85.846769 L 863.75375,85.841709 L 863.10711,87.458314 L 862.46047,86.973333 L 861.4905,86.00337 L 860.03556,87.943295 L 859.98709,92.975349 L 860.29874,98.642567 L 862.23866,101.39081 L 862.23866,105.43233 L 858.52046,110.49511 L 855.93389,111.62675 L 855.93389,112.75837 L 857.06552,114.53664 L 857.06552,123.10466 L 856.25721,132.31933 L 856.09555,137.16915 L 857.06552,138.46245 L 856.90386,142.98894 L 856.41887,144.76722 L 857.87382,145.65322 L 874.26374,140.9635 L 876.527,140.31686 L 878.06121,137.7645 L 881.79902,136.06299 z "
     id="NH"
     style="fill:#cccccc;fill-opacity:1" />
  <path
     d="M 845.34355,147.36466 L 844.53525,141.70653 L 842.14454,131.73486 L 841.4979,131.41154 L 838.588,130.11825 L 839.3963,127.20836 L 838.588,125.10677 L 835.88795,120.46679 L 836.85792,116.58693 L 836.04961,111.41378 L 833.6247,104.94734 L 832.81913,100.02483 L 859.06661,93.277387 L 859.39094,99.096467 L 861.33087,101.84471 L 861.33087,105.88623 L 857.61267,109.92775 L 855.0261,111.05938 L 855.0261,112.191 L 856.15772,113.96927 L 856.15772,122.53729 L 855.34942,131.75196 L 855.18776,136.60179 L 856.15772,137.89508 L 855.99606,142.42157 L 855.51108,144.19985 L 856.1717,145.7667 L 849.22029,147.14083 L 845.34355,147.36466 z "
     id="VT"
     style="fill:#cccccc;fill-opacity:1" />
  <path
     d="M 829.61427,183.06061 L 828.48264,182.09065 L 825.89606,181.92899 L 823.63282,179.98907 L 822.00221,173.85994 L 818.54375,173.95048 L 816.10004,171.24228 L 796.71472,175.62422 L 753.71294,184.35391 L 746.18329,185.5819 L 745.44513,179.11356 L 746.87323,177.98818 L 748.16651,176.85656 L 749.13648,175.23995 L 750.91474,174.10833 L 752.85467,172.33006 L 753.33965,170.71346 L 755.44123,167.96523 L 756.57286,166.99527 L 756.4112,166.0253 L 755.11791,162.95376 L 753.33965,162.7921 L 751.39972,156.649 L 754.30961,154.87073 L 758.67444,153.41579 L 762.71596,152.1225 L 765.94917,151.63752 L 772.25392,151.47586 L 774.19385,152.76915 L 775.81045,152.93081 L 777.91204,151.63752 L 780.49861,150.5059 L 785.67174,150.02092 L 787.77333,148.24265 L 789.55159,145.00944 L 791.1682,143.06952 L 793.26978,143.06952 L 795.20971,141.93789 L 795.37137,139.67465 L 793.91643,137.57306 L 793.59311,136.11812 L 794.72473,134.01653 L 794.72473,132.56159 L 792.94646,132.56159 L 791.1682,131.75329 L 790.3599,130.62166 L 790.19824,128.03509 L 796.01801,122.53864 L 796.66465,121.73034 L 798.1196,118.82045 L 801.02949,114.29395 L 803.77772,110.57576 L 805.8793,108.15086 L 808.2944,106.32525 L 811.37576,105.07931 L 816.87221,103.78602 L 820.10542,103.94768 L 824.63192,102.49274 L 832.19711,100.42157 L 832.7169,105.40124 L 835.14182,111.86768 L 835.95012,117.04083 L 834.98016,120.92069 L 837.56673,125.44719 L 838.37503,127.54878 L 837.56673,130.45868 L 840.47663,131.75196 L 841.12327,132.07528 L 844.19483,143.06822 L 843.65854,148.12789 L 843.17356,158.95916 L 843.98186,164.45563 L 844.79016,168.01217 L 846.24511,175.28691 L 846.24511,183.36995 L 845.11348,185.6332 L 846.95281,187.62599 L 847.74936,189.30441 L 845.80944,191.08268 L 846.13276,192.37596 L 847.42604,192.05264 L 848.88099,190.75936 L 851.14423,188.17279 L 852.27586,187.52615 L 853.89246,188.17279 L 856.15571,188.33445 L 864.07707,184.4546 L 866.98696,181.70637 L 868.28024,180.25143 L 872.48341,181.86803 L 869.08854,185.42456 L 865.20869,188.33445 L 858.09563,193.66924 L 855.50907,194.63921 L 849.68929,196.57913 L 845.64778,197.71076 L 844.47304,197.17783 L 844.22902,193.4893 L 844.714,190.74106 L 844.55234,188.63948 L 841.73883,186.94048 L 837.21233,185.97051 L 833.33247,184.83889 L 829.61427,183.06061 z "
     id="NY"
     style="fill:#cccccc;fill-opacity:1" />
  <path
     d="M 829.16036,183.96841 L 827.05878,186.39332 L 827.05878,189.46488 L 825.11884,192.53643 L 824.95718,194.15305 L 826.25048,195.44633 L 826.08882,197.87125 L 823.82556,199.00287 L 824.63386,201.7511 L 824.79552,202.88273 L 827.54376,203.20605 L 828.51372,205.79262 L 832.07026,208.21754 L 834.49517,209.83414 L 834.49517,210.64245 L 831.26196,213.71401 L 829.64535,215.97725 L 828.1904,218.72549 L 825.92715,220.01877 L 824.7147,220.74625 L 824.4722,221.95871 L 823.86297,224.56545 L 824.95524,226.80964 L 828.18845,229.71953 L 833.03826,231.98278 L 837.07977,232.62942 L 837.24143,234.08436 L 836.43313,235.05432 L 836.75645,237.80255 L 837.56475,237.80255 L 839.66634,235.37765 L 840.47464,230.52783 L 843.22287,226.48632 L 846.29442,220.0199 L 847.42604,214.52345 L 846.7794,213.39182 L 846.61774,204.01551 L 845.00113,200.62065 L 843.86951,201.42895 L 841.12128,201.75227 L 840.6363,201.26729 L 841.76793,200.29732 L 843.86951,198.3574 L 843.93257,197.26357 L 843.54818,193.82973 L 844.03316,191.08149 L 843.8715,188.9799 L 841.28493,187.84827 L 836.75843,186.87831 L 832.87857,185.74668 L 829.16036,183.96841 z "
     id="NJ"
     style="fill:#cccccc;fill-opacity:1" />
  <path
     d="M 823.20688,220.09805 L 824.33852,219.4514 L 826.60176,218.83897 L 828.05671,216.09073 L 829.67332,213.82748 L 832.90653,210.75592 L 832.90653,209.94762 L 830.48162,208.33102 L 826.92508,205.9061 L 825.95512,203.31953 L 823.20688,202.99621 L 823.04522,201.86458 L 822.23692,199.11635 L 824.50018,197.98473 L 824.66184,195.55981 L 823.36854,194.26652 L 823.5302,192.64991 L 825.47014,189.57836 L 825.47014,186.5068 L 827.81422,184.08189 L 828.02874,182.99844 L 825.44216,182.83678 L 823.17892,180.89686 L 820.754,175.56205 L 817.74942,174.63132 L 815.41919,172.49049 L 796.8282,176.53201 L 753.82642,185.2617 L 744.93507,186.71664 L 744.4394,179.63275 L 738.95187,185.2629 L 737.65858,185.74788 L 733.45629,188.75677 L 736.36705,207.89422 L 738.84871,217.62358 L 742.42051,236.88507 L 745.68982,236.24739 L 757.6334,234.74492 L 795.56003,227.07972 L 810.43624,224.2564 L 818.73659,222.63404 L 819.0037,222.39551 L 821.1053,220.77889 L 823.20688,220.09805 z "
     id="PA"
     style="fill:#cccccc;fill-opacity:1" />
  <path
     d="M 823.35259,224.06141 L 823.94187,221.95871 L 823.96339,220.7538 L 822.69394,220.66542 L 820.59234,222.28203 L 819.13739,223.73697 L 820.59234,227.94016 L 822.8556,233.59828 L 824.95718,243.29793 L 826.5738,249.60271 L 831.58528,249.44105 L 837.7274,248.22912 L 835.46317,240.8741 L 834.4932,241.35908 L 830.93667,238.93418 L 829.15841,234.24602 L 827.21848,230.68949 L 824.95524,229.71953 L 822.85365,226.163 L 823.35259,224.06141 z "
     id="DE"
     style="fill:#cccccc;fill-opacity:1" />
  <path
     d="M 837.95336,248.94315 L 831.81223,250.23538 L 826.00642,250.39704 L 824.16286,243.29793 L 822.06127,233.59828 L 819.79801,227.94016 L 818.50963,223.54183 L 811.00361,225.16419 L 796.1274,227.98751 L 758.67597,235.53841 L 759.80727,240.55007 L 760.77723,246.20818 L 761.10055,245.88486 L 763.20215,243.45996 L 765.46539,240.8423 L 767.8903,240.22674 L 769.34526,238.77179 L 771.12352,236.18522 L 772.4168,236.83187 L 775.32669,236.50854 L 777.91327,234.40696 L 779.92016,232.95369 L 781.76539,232.46871 L 783.40974,233.59866 L 786.31963,235.0536 L 788.25955,236.83187 L 789.47201,238.36765 L 793.59436,240.06508 L 793.59436,242.97497 L 799.09082,244.26826 L 800.23526,244.81024 L 801.64716,242.78192 L 804.52913,244.75208 L 803.25096,247.23401 L 802.48569,251.21967 L 800.70743,253.80624 L 800.70743,255.90783 L 801.35407,257.6861 L 806.41802,259.04179 L 810.72912,258.98007 L 813.80066,259.95004 L 815.90225,260.27336 L 816.87221,258.17177 L 815.41727,256.07019 L 815.41727,254.29192 L 812.99236,252.19033 L 810.89078,246.69388 L 812.18406,241.35908 L 812.0224,239.2575 L 810.72912,237.96421 C 810.72912,237.96421 812.18406,236.34761 812.18406,235.70097 C 812.18406,235.05432 812.66904,233.59938 812.66904,233.59938 L 814.60897,232.3061 L 816.54889,230.68949 L 817.03387,231.65946 L 815.57893,233.27606 L 814.28565,236.99425 L 814.60897,238.12587 L 816.38723,238.44919 L 816.87221,243.94565 L 814.77063,244.91561 L 815.09395,248.47214 L 815.57893,248.31048 L 816.71055,246.37056 L 818.32716,248.14882 L 816.71055,249.44211 L 816.38723,252.83698 L 818.9738,256.23185 L 822.85365,256.71683 L 824.47026,255.90853 L 827.70681,260.09146 L 829.06516,260.62776 L 835.71883,257.83081 L 837.72641,253.80694 L 837.95336,248.94315 z M 821.32087,257.92768 L 822.45249,260.43343 L 822.61415,262.2117 L 823.74578,264.0708 C 823.74578,264.0708 824.63492,263.18166 824.63492,262.85834 C 824.63492,262.53502 823.90745,259.78678 823.90745,259.78678 L 823.17997,257.44269 L 821.32087,257.92768 z "
     id="MD"
     style="fill:#cccccc;fill-opacity:1" />
  <path
     d="M 582.61931,75.697233 L 584.4483,73.639629 L 586.62022,72.839448 L 591.99286,68.952851 L 594.27908,68.381292 L 594.73634,68.838546 L 589.59232,73.982566 L 586.27728,75.925855 L 584.21967,76.840351 L 582.61931,75.697233 z M 668.79369,107.82542 L 669.44033,110.33116 L 672.67355,110.49282 L 673.96684,109.28036 C 673.96684,109.28036 673.88601,107.82542 673.56269,107.66375 C 673.23936,107.50209 671.94608,105.80465 671.94608,105.80465 L 669.76366,106.04714 L 668.14704,106.2088 L 667.82372,107.34043 L 668.79369,107.82542 z M 698.86007,170.87512 L 695.62686,162.63043 L 693.36361,153.57745 L 690.93871,150.34424 L 688.35214,148.56597 L 686.73554,149.6976 L 682.85568,151.47586 L 680.91576,156.48734 L 678.16753,160.20553 L 677.03591,160.85217 L 675.58096,160.20553 C 675.58096,160.20553 672.9944,158.75058 673.15606,158.10394 C 673.31772,157.4573 673.64104,153.09247 673.64104,153.09247 L 677.03591,151.79918 L 677.84421,148.40431 L 678.49085,145.81775 L 680.91576,144.20114 L 680.59244,134.17819 L 678.97583,131.91495 L 677.68255,131.10664 L 676.87425,129.00506 L 677.68255,128.19676 L 679.29915,128.52008 L 679.46081,126.90347 L 677.03591,124.64022 L 675.74262,122.05366 L 673.15606,122.05366 L 668.62956,120.59871 L 663.13311,117.20384 L 660.38488,117.20384 L 659.73824,117.85049 L 658.76827,117.3655 L 655.69673,115.10226 L 652.78684,116.88052 L 649.87695,119.14377 L 650.20027,122.7003 L 651.17023,123.02362 L 653.27182,123.5086 L 653.7568,124.3169 L 651.17023,125.12521 L 648.58367,125.44853 L 647.12872,127.22679 L 646.8054,129.32838 L 647.12872,130.94498 L 647.45204,136.44144 L 643.89551,138.54303 L 643.24887,138.38136 L 643.24887,134.17819 L 644.54215,131.75329 L 645.1888,129.32838 L 644.38049,128.52008 L 642.44057,129.32838 L 641.4706,133.53155 L 638.72238,134.66317 L 636.94411,136.6031 L 636.78245,137.57306 L 637.42909,138.38136 L 636.78245,140.96793 L 634.5192,141.45291 L 634.5192,142.58454 L 635.32751,145.00944 L 634.19588,151.15254 L 632.57928,155.19405 L 633.22592,159.88221 L 633.7109,161.01383 L 632.9026,163.43874 L 632.57928,164.24704 L 632.25596,166.99527 L 635.81249,172.9767 L 638.72238,179.44312 L 640.17732,184.29294 L 639.36902,188.98109 L 638.39906,194.96253 L 635.97415,200.13566 L 635.65083,202.88389 L 632.39196,205.96904 L 636.80057,205.80699 L 658.21906,203.54374 L 665.4969,202.55668 L 665.59327,204.22303 L 672.44521,203.01057 L 682.74329,201.50744 L 686.59749,201.04653 L 686.73554,200.45898 L 686.8972,199.00404 L 688.99878,195.28585 L 690.99934,193.548 L 690.77705,188.49611 L 692.37404,186.89912 L 693.46466,186.55618 L 693.68694,182.99965 L 695.22271,179.96853 L 696.2735,180.57475 L 696.43516,181.22139 L 697.24347,181.38305 L 699.18339,180.41309 L 698.86007,170.87512 z M 568.49209,104.85141 L 569.20837,104.27101 L 571.9566,103.4627 L 575.51313,101.19946 L 575.51313,100.22949 L 576.15978,99.582847 L 582.14121,98.612887 L 584.56612,96.672957 L 588.93095,94.571377 L 589.09261,93.278091 L 591.03254,90.368202 L 592.8108,89.5599 L 594.10409,87.781635 L 596.36733,85.518388 L 600.73217,83.093481 L 605.42032,82.6085 L 606.55194,83.740123 L 606.22862,84.710086 L 602.51043,85.680049 L 601.05549,88.751598 L 598.79224,89.5599 L 598.30726,91.984807 L 595.88235,95.218017 L 595.55903,97.804587 L 596.36733,98.289567 L 597.3373,97.157947 L 600.89383,94.248057 L 602.18711,95.541337 L 604.45036,95.541337 L 607.68357,96.511297 L 609.13851,97.642927 L 610.59345,100.71448 L 613.34168,103.4627 L 617.22153,103.30104 L 618.67648,102.33108 L 620.29308,103.62436 L 621.90969,104.10935 L 623.20297,103.30104 L 624.33459,103.30104 L 625.9512,102.33108 L 629.99271,98.774547 L 633.38758,97.642927 L 640.01566,97.319607 L 644.54215,95.379677 L 647.12872,94.086397 L 648.58367,94.248057 L 648.58367,99.906167 L 649.06865,100.22949 L 651.97853,101.0378 L 653.91846,100.55281 L 660.06156,98.936207 L 661.19318,97.804587 L 662.64813,98.289567 L 662.64813,105.24097 L 665.88134,108.31252 L 667.17462,108.95916 L 668.4679,109.92912 L 667.17462,110.25244 L 666.36632,109.92912 L 662.64813,109.44414 L 660.54654,110.09078 L 658.28329,109.92912 L 655.05008,111.38407 L 653.27182,111.38407 L 647.45204,110.09078 L 642.27891,110.25244 L 640.33898,112.83901 L 633.38758,113.48565 L 630.96267,114.29395 L 629.83105,117.3655 L 628.53777,118.49713 L 628.05279,118.33547 L 626.59784,116.71886 L 622.07135,119.14377 L 621.42471,119.14377 L 620.29308,117.52716 L 619.48478,117.68882 L 617.54486,122.05366 L 616.57489,126.09517 L 613.39377,133.09597 L 612.21701,132.0617 L 610.84527,131.03038 L 608.90449,120.74236 L 605.36001,119.37231 L 603.30743,117.08608 L 591.18707,114.3426 L 588.3318,113.31296 L 580.10138,111.14022 L 572.21139,109.9971 L 568.49209,104.85141 z "
     id="MI"
     style="fill:#cccccc;fill-opacity:1" />
  <path
     d="M 94.573239,5.2402527e-014 L 98.938071,1.4549443 L 108.6377,4.2031726 L 117.2057,6.1430976 L 137.2516,11.801215 L 160.20739,17.459331 L 175.36801,20.854004 L 174.36373,24.738056 L 170.27051,38.54773 L 165.81238,59.352382 L 162.63584,75.492263 L 162.28429,84.871033 L 149.10315,80.976997 L 133.53264,77.593818 L 119.86585,78.189556 L 118.28528,76.657357 L 112.95881,78.55448 L 108.9821,78.303872 L 106.2606,76.543041 L 104.68223,77.068435 L 100.4769,76.839803 L 98.601755,75.468073 L 93.824862,73.731421 L 92.382778,73.524785 L 87.397035,72.199211 L 85.614222,73.707231 L 79.922841,73.364304 L 75.101997,69.570058 L 75.30643,68.769878 L 75.374575,60.836223 L 73.248826,56.949647 L 69.133618,56.217607 L 68.768708,53.863241 L 66.2543,53.236195 L 63.372763,52.701313 L 61.594498,53.671276 L 59.331251,50.761388 L 59.654572,47.851499 L 62.4028,47.528178 L 64.019405,43.486667 L 61.432837,42.355043 L 61.594498,38.636852 L 65.959331,37.990211 L 63.211103,35.241983 L 61.756158,28.128922 L 62.4028,25.219034 L 62.4028,17.297671 L 60.624535,14.064461 L 62.887782,4.6881536 L 64.989368,5.1731346 L 67.414275,8.0830236 L 70.162503,10.669591 L 73.395712,12.609517 L 77.922205,14.711103 L 80.993756,15.357745 L 83.903645,16.812689 L 87.298518,17.782652 L 89.561764,17.620992 L 89.561764,15.196084 L 90.855048,14.064461 L 92.956634,12.771177 L 93.279955,13.902801 L 93.603276,15.681066 L 91.340029,16.166047 L 91.016708,18.267633 L 92.794974,19.722578 L 93.926597,22.147485 L 94.573239,24.08741 L 96.028183,23.92575 L 96.189843,22.632466 L 95.219881,21.339182 L 94.734899,18.105973 L 95.543201,16.327708 L 94.89656,14.872764 L 94.89656,12.609517 L 96.674825,9.0529866 L 95.543201,6.4664186 L 93.118294,1.6166047 L 93.441615,0.8083024 L 94.573239,5.2402527e-014 z M 85.116548,5.9789646 L 87.137312,5.8173046 L 87.622294,7.1914236 L 89.158073,5.5748086 L 91.502155,5.5748086 L 92.310458,7.1105876 L 90.774678,8.8080276 L 91.42133,9.6163406 L 90.693853,11.637102 L 89.319734,12.041248 C 89.319734,12.041248 88.430596,12.122084 88.430596,11.798763 C 88.430596,11.475442 89.885551,9.2121846 89.885551,9.2121846 L 88.188111,8.6463676 L 87.86479,10.101322 L 87.137312,10.747964 L 85.60153,8.4847066 L 85.116548,5.9789646 z "
     id="WA"
     style="fill:#cccccc;fill-opacity:1" />
  <path
     d="M 137.74132,380.39182 L 141.5564,379.9032 L 143.04244,377.89176 L 143.77448,375.95067 L 140.59796,375.86055 L 139.49879,374.09752 L 140.27701,372.38285 L 140.23083,366.23201 L 142.44892,364.90423 L 145.14622,362.32125 L 145.5573,357.40586 L 147.20382,353.90837 L 149.14711,351.80461 L 152.41598,350.08994 L 153.69537,349.36011 L 154.4516,347.87627 L 153.58327,346.98376 L 152.62262,345.47353 L 151.68615,340.12508 L 148.7822,334.88874 L 148.87926,332.10249 L 146.67843,328.85443 L 131.67947,305.62505 L 112.24655,276.91095 L 89.819562,243.87719 L 77.117107,224.33228 L 78.913818,217.12394 L 85.726337,191.17528 L 93.84244,159.73967 L 81.477041,156.40265 L 67.988306,152.97331 L 55.414067,148.8581 L 47.869522,146.8005 L 36.438394,143.82841 L 29.387579,141.41671 L 27.80746,146.14107 L 27.645799,153.57745 L 22.472664,165.37866 L 19.401116,167.96523 L 19.077795,169.09685 L 17.299529,169.90516 L 15.844585,174.10833 L 15.036283,177.34154 L 17.784511,181.54471 L 19.401116,185.74788 L 20.532739,189.30441 L 20.209418,195.77083 L 18.431153,198.84238 L 17.784511,204.66216 L 16.814548,208.38035 L 18.592813,212.2602 L 21.341041,216.78669 L 23.604288,221.63651 L 24.897571,225.67802 L 24.574251,228.91123 L 24.25093,229.39621 L 24.25093,231.49779 L 29.909046,237.80255 L 29.424065,240.22746 L 28.777423,242.49071 L 28.130781,244.43063 L 28.292441,252.67532 L 30.394027,256.39351 L 32.333953,258.98007 L 35.082181,259.46506 L 36.052144,262.21328 L 34.920521,265.76981 L 32.818934,267.38642 L 31.687311,267.38642 L 30.879009,271.26627 L 31.36399,274.17616 L 34.5972,278.54099 L 36.213804,283.87579 L 37.668748,288.56394 L 38.962032,291.63549 L 42.356902,297.45527 L 43.811846,300.04183 L 44.296828,302.95172 L 45.913432,303.92168 L 45.913432,306.34659 L 45.10513,308.28652 L 43.326865,315.39958 L 42.841883,317.3395 L 45.266791,320.08773 L 49.469963,320.57271 L 53.996456,322.35098 L 57.876307,324.45256 L 60.786196,324.45256 L 63.696084,327.52411 L 66.282651,332.37393 L 67.414275,334.63717 L 71.294126,336.73876 L 76.14394,337.54706 L 77.598884,339.64865 L 78.245526,342.88186 L 76.790582,343.5285 L 77.113903,344.49846 L 80.347114,345.30676 L 83.095342,345.46843 L 86.005231,350.15658 L 89.885085,354.35975 L 90.693387,356.623 L 93.279955,360.82617 L 93.603276,364.05938 L 93.603276,373.43569 L 94.088257,375.21395 L 104.11121,376.6689 L 123.83378,379.41712 L 137.74132,380.39182 z M 49.793607,330.67514 L 51.086895,332.21092 L 50.925235,333.50421 L 47.692014,333.42338 L 47.1262,332.21092 L 46.479556,330.75597 L 49.793607,330.67514 z M 51.733539,330.67514 L 52.945997,330.0285 L 56.50254,332.13009 L 59.5741,333.34254 L 58.684964,333.9892 L 54.158455,333.7467 L 52.541845,332.13009 L 51.733539,330.67514 z M 72.426153,350.47862 L 74.204418,352.8227 L 75.012731,353.79267 L 76.54851,354.35848 L 77.114317,352.90353 L 76.144354,351.12526 L 73.476951,349.1045 L 72.426153,349.26616 L 72.426153,350.47862 z M 70.971198,359.12748 L 72.749474,362.27987 L 73.961932,364.21981 L 72.506978,364.46229 L 71.213694,363.24984 C 71.213694,363.24984 70.486217,361.79489 70.486217,361.39073 C 70.486217,360.98659 70.486217,359.20831 70.486217,359.20831 L 70.971198,359.12748 z "
     id="CA"
     style="fill:#cccccc;fill-opacity:1" />
  <path
     d="M 141.30581,170.32446 L 145.60346,152.42376 L 150.26824,134.54503 L 151.31903,130.31551 L 153.6734,124.69228 L 153.05789,123.5294 L 150.54303,123.48322 L 149.26143,121.81252 L 149.71867,120.34845 L 150.22208,117.10157 L 154.68023,111.61462 L 156.50921,110.51547 L 157.65232,109.37236 L 159.13836,105.80673 L 163.18542,100.13733 L 166.75105,96.274927 L 166.97967,92.82361 L 163.71081,90.354928 L 162.50192,85.844886 L 149.26363,82.100333 L 134.17454,78.556683 L 118.74252,78.670989 L 118.28528,77.29926 L 112.79833,79.356864 L 108.34019,78.785305 L 105.93965,77.184944 L 104.68223,77.870819 L 99.99547,77.642187 L 98.280804,76.270458 L 93.022478,74.212854 L 92.222297,74.32717 L 87.878467,72.841114 L 85.935176,74.670097 L 79.762364,74.32717 L 73.818181,70.211961 L 74.504046,69.411781 L 74.732667,61.638608 L 72.446442,57.752031 L 68.331234,57.180472 L 67.645369,54.665625 L 65.291437,54.19906 L 59.492912,56.257844 L 57.229665,62.724262 L 53.996456,72.747211 L 50.763246,79.21363 L 45.751772,93.278091 L 39.285353,106.85757 L 31.20233,119.46709 L 29.262404,122.37698 L 28.454102,130.94498 L 27.160818,136.92642 L 29.86901,140.45385 L 36.598871,142.70507 L 48.190476,145.99811 L 56.055974,148.53715 L 68.469737,152.17093 L 81.797995,155.76075 L 94.965776,159.32636"
     id="OR"
     style="fill:#cccccc;fill-opacity:1" />
  <path
     d="M 618.80493,295.23956 L 618.80493,291.63485 L 619.06296,286.76792 L 621.43968,283.63109 L 623.21795,279.86469 L 625.80452,276.00194 L 625.43302,270.74954 L 623.42781,267.20697 L 623.33143,263.86029 L 624.02626,258.59078 L 623.20085,251.41241 L 622.13451,235.63496 L 620.84123,220.61762 L 619.91895,208.97842 L 619.64644,208.05703 L 618.83814,205.47046 L 617.54486,201.75227 L 615.92825,199.974 L 614.47331,197.38744 L 614.23974,191.89848 L 604.33707,193.21072 L 577.13098,194.92539 L 568.44331,194.49673 L 568.67193,196.86868 L 570.95816,197.55455 L 571.87264,198.69766 L 572.32989,200.52664 L 576.21647,203.95598 L 576.90235,206.24221 L 576.21647,209.67155 L 574.38749,213.32951 L 573.70163,215.84435 L 571.4154,217.67334 L 569.58642,218.35921 L 564.3281,219.73094 L 563.64223,221.55992 L 562.95636,223.61753 L 563.64223,224.98927 L 565.47121,226.58963 L 565.24259,230.70483 L 563.4136,232.30519 L 562.72774,233.90555 L 562.72774,236.64902 L 560.89876,237.10626 L 559.2984,238.24938 L 559.06978,239.62112 L 559.2984,241.67872 L 557.58373,242.99329 L 556.55493,245.79393 L 557.01217,249.45188 L 559.2984,256.76781 L 566.61433,264.31236 L 572.10126,267.97032 L 571.87264,272.31415 L 572.78714,273.68589 L 579.18857,274.14313 L 581.93204,275.51487 L 581.24618,279.17283 L 578.95995,285.11702 L 578.27408,288.31774 L 580.5603,292.20432 L 586.96174,297.46264 L 591.5342,298.14851 L 593.59179,303.17821 L 595.6494,306.37892 L 594.73491,309.35101 L 596.33527,313.46622 L 598.16425,315.52383 L 600.10861,314.73153 L 600.7953,312.56835 L 602.8316,311.13051 L 606.06793,310.02997 L 609.15659,311.20977 L 612.03228,312.27611 L 612.82348,312.06627 L 612.75819,310.82429 L 611.69186,308.05895 L 612.12866,305.68223 L 614.409,304.1138 L 616.76863,303.12674 L 617.93134,302.70705 L 617.34998,301.38267 L 616.58986,299.2158 L 617.83496,297.95359 L 618.80493,295.23956 z "
     id="IL"
     style="fill:#cccccc;fill-opacity:1" />
  <path
     d="M 472.87905,122.10907 L 472.4218,113.65003 L 470.59282,106.33411 L 468.76384,92.845379 L 468.30659,83.014601 L 466.47761,79.585258 L 464.87725,74.555563 L 464.87725,64.267543 L 465.56311,60.380956 L 463.74218,54.929289 L 493.8746,54.96456 L 494.19792,46.719876 L 494.84456,46.558215 L 497.10781,47.043197 L 499.04773,47.851499 L 499.85603,53.347955 L 501.31098,59.491053 L 502.92758,61.107658 L 507.7774,61.107658 L 508.10072,62.562602 L 514.40548,62.885923 L 514.40548,64.987509 L 519.25529,64.987509 L 519.57861,63.694225 L 520.71023,62.562602 L 522.97348,61.91596 L 524.26676,62.885923 L 527.17665,62.885923 L 531.0565,65.47249 L 536.3913,67.897397 L 538.81621,68.382379 L 539.30119,67.412416 L 540.75613,66.927434 L 541.24111,69.837323 L 543.82768,71.130607 L 544.31266,70.645625 L 545.60595,70.807286 L 545.60595,72.908872 L 548.19251,73.878835 L 551.26406,73.878835 L 552.88067,73.070532 L 556.11388,69.837323 L 558.70044,69.352342 L 559.50875,71.130607 L 559.99373,72.42389 L 560.96369,72.42389 L 561.93365,71.615588 L 570.82498,71.292267 L 572.60324,74.363816 L 573.24989,74.363816 L 573.9635,73.279537 L 578.40341,72.908872 L 577.79131,75.188331 L 573.85259,77.025456 L 564.60681,81.086584 L 559.83207,83.093481 L 556.76052,85.680049 L 554.33561,89.236579 L 552.07237,93.11643 L 550.2941,93.924737 L 545.76761,98.936207 L 544.47432,99.097867 L 540.63268,102.03177 L 537.81624,105.19268 L 537.58762,108.1631 L 537.81457,115.94129 L 536.21755,117.54165 L 530.95924,121.65517 L 529.12691,127.37242 L 531.6451,131.02034 L 532.10402,133.54021 L 530.95589,136.51398 L 530.72893,140.17361 L 531.18618,147.25756 L 534.61218,151.36441 L 537.58762,151.36441 L 540.09745,153.65732 L 543.29984,155.02237 L 546.95948,160.05709 L 554.04677,165.08009 L 555.87742,167.14271 L 556.11107,172.64472 L 535.52332,173.33059 L 475.27457,173.78951 L 474.93665,138.11266 L 474.47941,135.14057 L 470.3642,131.71123 L 469.22108,129.88225 L 469.22108,128.28188 L 471.27868,126.68153 L 472.65042,125.30979 L 472.87905,122.10907 z "
     id="MN"
     style="fill:#cccccc;fill-opacity:1" />
  <path
     d="M 613.94089,190.81939 L 614.31165,187.84947 L 612.69504,183.32297 L 612.0484,177.17988 L 610.91678,174.75497 L 611.88674,171.68342 L 612.69504,168.77353 L 614.14999,166.18697 L 613.50334,162.7921 L 612.8567,159.23557 L 613.34168,157.4573 L 615.28161,155.03239 L 615.44327,152.28416 L 614.63497,150.99088 L 615.28161,148.40431 L 615.76659,145.1711 L 618.51482,139.51299 L 621.42471,132.72325 L 621.58637,130.46 L 621.26305,129.49004 L 620.45474,129.97502 L 616.25157,136.27978 L 613.50334,140.32129 L 611.56342,142.09956 L 610.75512,144.3628 L 609.30017,145.1711 L 608.16855,147.11103 L 606.7136,146.78771 L 606.55194,145.00944 L 607.84523,142.58454 L 609.94681,137.89638 L 611.72508,136.27978 L 612.8264,133.98822 L 611.19574,133.08297 L 609.824,131.71123 L 608.22364,121.42321 L 604.56569,120.2801 L 603.19395,117.99387 L 590.6197,115.2504 L 588.10485,114.10729 L 579.87444,111.82106 L 571.64402,110.67794 L 567.47456,105.27314 L 566.94513,106.53425 L 565.81351,106.37259 L 565.16686,105.24097 L 562.41864,104.43267 L 561.28701,104.59433 L 559.50875,105.56429 L 558.53878,104.91765 L 559.18543,102.97772 L 561.12535,99.906167 L 562.25697,98.774547 L 560.31705,97.319607 L 558.21546,98.127907 L 555.30557,100.06783 L 547.86919,103.30104 L 544.9593,103.94768 L 542.04942,103.4627 L 541.06769,102.58445 L 538.95099,105.41963 L 538.72237,108.1631 L 538.72237,116.62213 L 537.57925,118.2225 L 532.32093,122.10907 L 530.03471,128.05326 L 530.49195,128.28188 L 533.0068,130.33949 L 533.69266,133.54021 L 531.86368,136.74092 L 531.86368,140.62751 L 532.32093,147.25756 L 535.29302,150.22966 L 538.72237,150.22966 L 540.55135,153.43038 L 543.98068,153.88762 L 547.86727,159.60319 L 554.95457,163.7184 L 557.01217,166.46187 L 557.92667,173.89211 L 558.61253,177.20713 L 560.89876,178.80749 L 561.12738,180.17923 L 559.06978,183.60856 L 559.2984,186.80929 L 561.81325,190.69587 L 564.3281,191.83898 L 567.30019,192.29622 L 568.64253,193.67634 L 577.81603,193.67632 L 603.88316,192.18945 L 613.94089,190.81939 z "
     id="WI"
     style="fill:#cccccc;fill-opacity:1" />
  <path
     d="M 802.75695,247.48207 L 801.67992,245.8454 L 800.66604,245.00286 L 801.7653,243.38664 L 803.99814,244.89764 L 802.75695,247.48207 z "
     id="DC"
     style="fill:#cccccc;fill-opacity:1" />
  <g
     inkscape:groupmode="layer"
     id="layer1"
     inkscape:label="Labels"
     style="display:inline"
     transform="translate(1,-6.3617734)" />
  <path
     d="M 212,486.63823 L 212,541.63823 L 248,586.63823 M 1,418.63823 L 145,418.63823 L 212,486.63823 L 298,486.63823 L 351,540.63823 L 351,586.63823"
     id="path2313"
     style="font-size:28px;font-style:normal;font-variant:normal;font-weight:bold;font-stretch:normal;text-align:start;line-height:125%;writing-mode:lr-tb;text-anchor:start;fill:none;stroke:#a9a9a9;stroke-width:2;font-family:Helvetica Neue" />
  <path
     sodipodi:type="arc"
     style="fill:#cc0000;fill-opacity:0.50196078;stroke:none;stroke-width:3;stroke-miterlimit:4;stroke-dasharray:none;stroke-dashoffset:0;stroke-opacity:1"
     id="path3197"
     sodipodi:cx="262.85825"
     sodipodi:cy="312.93686"
     sodipodi:rx="26.061855"
     sodipodi:ry="26.061855"
     d="M 288.9201 312.93686 A 26.061855 26.061855 0 1 1  236.79639,312.93686 A 26.061855 26.061855 0 1 1  288.9201 312.93686 z"
     transform="translate(-8.4677835,-9.314093)" />
  <g font-family="Helvetica,Arial,sans-serif" font-weight="bold" font-size="60" text-anchor="middle" stroke="none" fill="#000000">
     <text transform="translate(200,360) scale(0.9,1)" x="0" y="0.7ex">AZ</text>
     <text transform="translate(325,265) scale(0.9,1)" x="0" y="0.7ex">CO</text>
     <text transform="translate(305,370) scale(0.9,1)" x="0" y="0.7ex">NM</text>
     <text transform="translate(225,250) scale(0.9,1)" x="0" y="0.7ex">UT</text>
  </g>
</svg>
